<?xml version="1.0" encoding="utf-8"?>
<!-- Generator: Adobe Illustrator 18.1.1, SVG Export Plug-In . SVG Version: 6.00 Build 0)  -->
<!DOCTYPE svg PUBLIC "-//W3C//DTD SVG 1.1//EN" "http://www.w3.org/Graphics/SVG/1.1/DTD/svg11.dtd">
<svg version="1.1" id="Layer_1" xmlns="http://www.w3.org/2000/svg" xmlns:xlink="http://www.w3.org/1999/xlink" x="0px" y="0px"
	 viewBox="0 0 998 718" enable-background="new 0 0 998 718" xml:space="preserve">
<g>
	<path fill="#FFFFFF" stroke="#000000" stroke-width="8.798" stroke-miterlimit="10" d="M632.3,397.4c0,8.6-21.5,110.7-21.5,110.7
		s1.3,12.8-12.8,12.8c-14,0-14-12.8-14-12.8l29-110.7H632.3z"/>
	<path fill="#FFFFFF" stroke="#000000" stroke-width="8.798" stroke-miterlimit="10" d="M714.5,397.4c0,8.6,21.4,110.7,21.4,110.7
		s-1.3,12.8,12.8,12.8c14.1,0,14-12.8,14-12.8l-29.1-110.7H714.5z"/>
	<path fill="#B0AEA1" stroke="#000000" stroke-width="8.798" stroke-miterlimit="10" d="M623.7,420.9l-0.3,77.3h98.7
		c0,0,1.8-39.2,2.5-74.9l-0.1-3.1c-0.3,20.1-1.3,51.7-1.3,51.7l10.8,28.8l25.9-5.2l-28.3-105.7l-36.6-2.2
		c-5.8-2.1-12.5-3.3-20.5-3.3h-2.2c-7.8,0-14.6,1.2-20.5,3.3l-36.6,2.2l-28.3,105.7l25.9,5.2l10.4-30.4c0,0,0-30.1,0.4-51.3"/>
	<path fill="#FFFFFF" stroke="#000000" stroke-width="8.798" stroke-miterlimit="10" d="M313.4,421.9c3,8,58.6,96.3,58.6,96.3
		s3.2,12.3,16.4,7.5c13.1-4.8,8.7-16.8,8.7-16.8l-58.6-96.2L313.4,421.9z"/>
	<path stroke="#000000" stroke-width="8.798" stroke-miterlimit="10" d="M221.9,300.8c0,0-19,72.5,0,92.8
		c19,20.4,119.9,22.1,137.3,9.8c9.7-6.9,16.5-3.9,2.5-102.5H221.9V300.8z"/>
	<path fill="#FFFFFF" stroke="#000000" stroke-width="8.798" stroke-miterlimit="10" d="M361.7,300.8c0,40-27.4,72.5-67.3,72.5
		s-67.3-32.5-67.3-72.5s27.4-67.3,67.3-67.3S361.7,260.8,361.7,300.8z"/>
	<path stroke="#000000" stroke-width="8.798" stroke-miterlimit="10" d="M324.2,238.1c0,0-31,66-102.2,66c0,0-0.4-36.6,29-58
		C286.8,220.2,324.2,238.1,324.2,238.1z"/>
	<path d="M261,328.8h63.2c0,0-5.5,25.4-31.7,25.4C266.5,354.2,261,328.8,261,328.8z"/>
	<path fill="#FFFFFF" stroke="#000000" stroke-width="8.798" stroke-miterlimit="10" d="M258.4,436.9c-6.3-5.9-74.5-70.6-74.5-70.6
		s-8.4-9.7-17.9,0.4c-9.6,10.1-0.4,18.9-0.4,18.9l74.5,70.6L258.4,436.9z"/>
	<path fill="#FFFFFF" stroke="#000000" stroke-width="8.798" stroke-miterlimit="10" d="M246.9,543.9c0,8.6-0.7,102.6-0.7,102.6
		s-1.6,12.6,16.2,12.8c17.9,0.1,17.9-12.6,17.9-12.6L281,544L246.9,543.9z"/>
	<path fill="#FFFFFF" stroke="#000000" stroke-width="8.798" stroke-miterlimit="10" d="M308.4,544c0,8.6-0.7,102.6-0.7,102.6
		s-1.6,12.6,16.2,12.8c17.9,0.1,17.9-12.7,17.9-12.7l0.7-102.6L308.4,544z"/>
	<path fill="#B0AEA1" stroke="#000000" stroke-width="8.798" stroke-miterlimit="10" d="M293.4,374c69.6,0,79.9,195.1,79.9,195.1
		H221.9C221.9,569,223.7,374,293.4,374z"/>
	<path d="M270.5,380.2l-7.3,26.5l30.1-22.1l29.6,22.1l-7.9-28.5c0,0-16.8-5.7-22.6-5.7C286.7,372.7,270.5,380.2,270.5,380.2z"/>
	<path fill="#EFEFE7" stroke="#000000" stroke-width="8.798" stroke-miterlimit="10" d="M313.4,292.8c0,0,12.8,12.8,23,0"/>
	<path fill="none" stroke="#000000" stroke-width="8.798" stroke-miterlimit="10" d="M255.5,292.8c0,0,12.8,12.8,23,0"/>
	<path fill="#FFFFFF" stroke="#000000" stroke-width="8.798" stroke-miterlimit="10" d="M742.9,306.3c0,40-27.4,72.5-67.3,72.5
		s-67.4-32.5-67.4-72.5s27.4-67.3,67.3-67.3S742.9,266.3,742.9,306.3z"/>
	<path fill="none" stroke="#000000" stroke-width="8.798" stroke-miterlimit="10" d="M705.3,331.7c0,0-5.5,20.3-31.7,20.3
		s-31.7-20.3-31.7-20.3"/>
	<path fill="#FFFFFF" stroke="#000000" stroke-width="8.798" stroke-miterlimit="10" d="M633.9,559.7c0,8.6-12.3,100.1-12.3,100.1
		s-1.7,12.6,16.2,12.8s17.9-12.7,17.9-12.7L668,559.8L633.9,559.7z"/>
	<path fill="#FFFFFF" stroke="#000000" stroke-width="8.798" stroke-miterlimit="10" d="M674.3,559.7c0,8.6,11.1,100.1,11.1,100.1
		s-1.7,12.6,16.2,12.8c17.9,0.1,17.9-12.7,17.9-12.7l-11.1-100.1L674.3,559.7z"/>
	<path d="M651.6,384.5l-7.3,26.5l30.1-22.1L704,411l-7.9-25.9c0,0-16.8-5.7-22.5-5.7C667.7,379.4,651.6,384.5,651.6,384.5z"/>
	<path fill="#EFEFE7" stroke="#000000" stroke-width="8.798" stroke-miterlimit="10" d="M659.6,303.9c0,0-12.8-12.8-23,0"/>
	<path fill="none" stroke="#000000" stroke-width="8.798" stroke-miterlimit="10" d="M717.5,303.9c0,0-12.8-12.8-23,0"/>
	<polygon points="623.4,498.3 722,498.3 723.6,648.2 686.2,648.2 674.5,559.7 665.4,559.7 653.8,648.2 616.4,648.2 	"/>
	<path fill="none" stroke="#000000" stroke-width="8.798" stroke-miterlimit="10" d="M686.4,240.8c0,0,50.5,22.8,58.6-20.1"/>
	<path fill="none" stroke="#000000" stroke-width="8.798" stroke-miterlimit="10" d="M685,239.3c13.4,4.5,47.6,7.6,45.9-27.5"/>
	<path fill="none" stroke="#000000" stroke-width="8.798" stroke-miterlimit="10" d="M686.4,240.8c0,0,42.5,0.1,26-40.3"/>
	<polygon points="674.5,391 667.4,396.5 662.9,443.6 674.5,455.7 685.2,444.3 681.5,396.5 	"/>
</g>
<path fill="#FFFFFF" stroke="#000000" stroke-width="8.166" stroke-miterlimit="10" d="M437.1,15.9H14.5c-2.3,0-4.2,1.7-4.2,3.6
	v151.9c0,2,1.9,3.6,4.2,3.6h64.9c14.5,10.1,45.2,33.8,45.2,53v-53h312.5c2.3,0,4.2-1.7,4.2-3.6V19.6
	C441.4,17.6,439.4,15.9,437.1,15.9z"/>
<path fill="#FFFFFF" stroke="#000000" stroke-width="8.166" stroke-miterlimit="10" d="M530.6,15.9h422.6c2.3,0,4.2,1.7,4.2,3.6
	v151.9c0,2-1.9,3.6-4.2,3.6h-64.9c-14.5,10.1-45.2,33.8-45.2,53v-53H530.6c-2.3,0-4.2-1.7-4.2-3.6V19.6
	C526.4,17.6,528.3,15.9,530.6,15.9z"/>
<rect x="119.6" y="57.6" fill="none" width="174.8" height="175.9"/>
<text transform="matrix(1 0 0 1 119.6013 125.354)" fill="#214BA0" font-family="'FuturaStd-Book'" font-size="82.1146" letter-spacing="4">@!$</text>
<rect x="654.5" y="57.6" fill="none" width="174.8" height="175.9"/>
<text transform="matrix(1 0 0 1 654.5344 125.354)" fill="#214BA0" font-family="'FuturaStd-Book'" font-size="82.1146" letter-spacing="4">*^#</text>
</svg>
