<?xml version="1.0" encoding="utf-8"?>
<!-- Generator: Adobe Illustrator 18.1.1, SVG Export Plug-In . SVG Version: 6.00 Build 0)  -->
<!DOCTYPE svg PUBLIC "-//W3C//DTD SVG 1.1//EN" "http://www.w3.org/Graphics/SVG/1.1/DTD/svg11.dtd">
<svg version="1.1" xmlns="http://www.w3.org/2000/svg" xmlns:xlink="http://www.w3.org/1999/xlink" x="0px" y="0px"
	 viewBox="0 0 187.5 131.5" enable-background="new 0 0 187.5 131.5" xml:space="preserve">
<g id="Layer_1">
	<g>
		<path fill="#FFFFFF" stroke="#000000" stroke-width="1.5" stroke-miterlimit="10" d="M122.3,77.4c0,1.7-4.1,21.3-4.1,21.3
			s0.2,2.5-2.5,2.5c-2.7,0-2.7-2.4-2.7-2.4l5.6-21.3L122.3,77.4z"/>
		<path fill="#FFFFFF" stroke="#000000" stroke-width="1.5" stroke-miterlimit="10" d="M138.2,77.4c0,1.7,4.1,21.3,4.1,21.3
			s-0.2,2.5,2.5,2.5c2.7,0,2.7-2.4,2.7-2.4l-5.6-21.3L138.2,77.4z"/>
		<path fill="#B0AEA1" stroke="#000000" stroke-width="1.5" stroke-miterlimit="10" d="M120.7,82l-0.1,14.9h19c0,0,0.3-7.6,0.5-14.4
			l0-0.6c-0.1,3.9-0.3,10-0.3,10l2.1,5.6l5-1L141.5,76l-7.1-0.4c-1.1-0.4-2.4-0.6-3.9-0.6H130c-1.5,0-2.8,0.2-3.9,0.6l-7.1,0.4
			l-5.4,20.4l5,1l2-5.9c0,0,0-5.8,0.1-9.9"/>
		<path fill="#FFFFFF" stroke="#000000" stroke-width="1.5" stroke-miterlimit="10" d="M60.8,84.7c0.6,1.6,11.3,18.6,11.3,18.6
			s0.6,2.4,3.2,1.4c2.5-0.9,1.7-3.2,1.7-3.2L65.7,82.9L60.8,84.7z"/>
		<path stroke="#000000" stroke-width="1.5" stroke-miterlimit="10" d="M43.2,61.3c0,0-3.7,14,0,17.9s23.1,4.3,26.5,1.9
			c1.9-1.3,3.2-0.7,0.5-19.8H43.2z"/>
		<path fill="#FFFFFF" stroke="#000000" stroke-width="1.5" stroke-miterlimit="10" d="M70.2,61.3c0,7.7-5.3,14-13,14s-13-6.3-13-14
			s5.3-13,13-13S70.2,53.6,70.2,61.3z"/>
		<path stroke="#000000" stroke-width="1.5" stroke-miterlimit="10" d="M62.9,49.2c0,0-6,12.7-19.7,12.7c0,0-0.1-7.1,5.6-11.2
			C55.7,45.8,62.9,49.2,62.9,49.2z"/>
		<path d="M50.7,66.7h12.2c0,0-1.1,4.9-6.1,4.9S50.7,66.7,50.7,66.7z"/>
		<path fill="#FFFFFF" stroke="#000000" stroke-width="1.5" stroke-miterlimit="10" d="M50.3,87.6C49,86.4,35.9,73.9,35.9,73.9
			s-1.6-1.9-3.5,0.1c-1.9,2-0.1,3.6-0.1,3.6l14.4,13.6L50.3,87.6z"/>
		<path fill="#FFFFFF" stroke="#000000" stroke-width="1.5" stroke-miterlimit="10" d="M48,108.2c0,1.7-0.1,19.8-0.1,19.8
			s-0.3,2.4,3.1,2.5s3.5-2.4,3.5-2.4l0.1-19.8L48,108.2z"/>
		<path fill="#FFFFFF" stroke="#000000" stroke-width="1.5" stroke-miterlimit="10" d="M59.9,108.2c0,1.7-0.1,19.8-0.1,19.8
			s-0.3,2.4,3.1,2.5s3.5-2.4,3.5-2.4l0.1-19.8L59.9,108.2z"/>
		<path fill="#B0AEA1" stroke="#000000" stroke-width="1.5" stroke-miterlimit="10" d="M57,75.4c13.4,0,15.4,37.6,15.4,37.6H43.2
			C43.2,113.1,43.5,75.4,57,75.4z"/>
		<path d="M52.6,76.7l-1.4,5.1l5.8-4.3l5.7,4.3l-1.5-5.5c0,0-3.2-1.1-4.4-1.1C55.7,75.2,52.6,76.7,52.6,76.7z"/>
		<path fill="#EFEFE7" stroke="#000000" stroke-width="1.5" stroke-miterlimit="10" d="M60.8,59.8c0,0,2.5,2.5,4.4,0"/>
		<path fill="none" stroke="#000000" stroke-width="1.5" stroke-miterlimit="10" d="M49.7,59.8c0,0,2.5,2.5,4.4,0"/>
		<path fill="#FFFFFF" stroke="#000000" stroke-width="1.5" stroke-miterlimit="10" d="M143.7,59.9c0,7.7-5.3,14-13,14
			s-13-6.3-13-14s5.3-13,13-13S143.7,52.2,143.7,59.9z"/>
		<path fill="none" stroke="#000000" stroke-width="1.5" stroke-miterlimit="10" d="M136.4,64.8c0,0-1.1,3.9-6.1,3.9
			c-5,0-6.1-3.9-6.1-3.9"/>
		<path fill="#FFFFFF" stroke="#000000" stroke-width="1.5" stroke-miterlimit="10" d="M122.6,108.7c0,1.7-2.4,19.3-2.4,19.3
			s-0.3,2.4,3.1,2.5c3.4,0,3.5-2.4,3.5-2.4l2.4-19.3L122.6,108.7z"/>
		<path fill="#FFFFFF" stroke="#000000" stroke-width="1.5" stroke-miterlimit="10" d="M130.4,108.7c0,1.7,2.1,19.3,2.1,19.3
			s-0.3,2.4,3.1,2.5c3.4,0,3.5-2.4,3.5-2.4l-2.1-19.3L130.4,108.7z"/>
		<path d="M126.1,74.9l-1.4,5.1l5.8-4.3l5.7,4.3l-1.5-5c0,0-3.2-1.1-4.4-1.1C129.2,74,126.1,74.9,126.1,74.9z"/>
		<path fill="#EFEFE7" stroke="#000000" stroke-width="1.5" stroke-miterlimit="10" d="M127.6,59.4c0,0-2.5-2.5-4.4,0"/>
		<path fill="none" stroke="#000000" stroke-width="1.5" stroke-miterlimit="10" d="M138.8,59.4c0,0-2.5-2.5-4.4,0"/>
		<polygon points="121.3,96.9 139.1,96.9 139.4,125.8 132.7,125.8 130.6,108.7 128.9,108.7 126.8,125.8 120.1,125.8 		"/>
		<path fill="none" stroke="#000000" stroke-width="1.5" stroke-miterlimit="10" d="M132.8,47.2c0,0,9.7,4.4,11.3-3.9"/>
		<path fill="none" stroke="#000000" stroke-width="1.5" stroke-miterlimit="10" d="M132.5,47c2.6,0.9,9.2,1.5,8.8-5.3"/>
		<path fill="none" stroke="#000000" stroke-width="1.5" stroke-miterlimit="10" d="M132.8,47.2c0,0,8.2,0,5-7.8"/>
		<polygon points="130.5,76.2 129.1,77.3 128.2,86.3 130.5,88.7 132.5,86.5 131.8,77.3 		"/>
	</g>
	<path fill="#FFFFFF" stroke="#000000" stroke-width="1.5" stroke-miterlimit="10" d="M84.7,2.4H3.2c-0.4,0-0.8,0.3-0.8,0.7v29.3
		c0,0.4,0.4,0.7,0.8,0.7h12.5c2.8,2,8.7,6.5,8.7,10.2V33.1h60.3c0.4,0,0.8-0.3,0.8-0.7V3.1C85.5,2.7,85.1,2.4,84.7,2.4z"/>
	<path fill="#FFFFFF" stroke="#000000" stroke-width="1.5" stroke-miterlimit="10" d="M102.7,2.4h81.5c0.4,0,0.8,0.3,0.8,0.7v29.3
		c0,0.4-0.4,0.7-0.8,0.7h-12.5c-2.8,2-8.7,6.5-8.7,10.2V33.1h-60.3c-0.4,0-0.8-0.3-0.8-0.7V3.1C101.9,2.7,102.3,2.4,102.7,2.4z"/>
	<g>
		<path fill="#214BA0" d="M32.1,14.5h1.1l-0.8,4c-0.1,0.5-0.3,1.3,0.2,1.3c0.7,0,1.8-1.5,1.8-3c0.2-2.8-1.8-4.4-4.4-4.4
			c-2.8,0-4.9,2.2-4.9,5c0,3,2.3,5,5.1,5c1.3,0,2.4-0.3,3-0.7l1.1,0.8c-1.1,0.6-2.3,1.1-4.3,1.1c-3.4,0-6.1-2.6-6.1-6.2
			c0-3.5,2.7-6.2,6-6.2c1.4,0,2.7,0.4,3.7,1.4c1.1,0.9,1.8,2.2,1.8,3.6c0,1.3-0.3,2.5-1,3.3c-0.8,1-1.7,1.4-2.4,1.4
			c-0.4,0-0.8-0.4-0.9-1c-0.5,0.5-1.2,1-2.2,1c-1.4,0-2.7-1.3-2.7-2.9c0-1.9,1.3-3.7,3.2-3.7c0.8,0,1.5,0.3,2.1,1.1L32.1,14.5z
			 M29.3,19.9c1.4,0,2-1.2,2.1-2.3c0.2-1.3-0.5-2.1-1.6-2.1c-1.3,0-2.2,1.3-2.2,2.5C27.6,19.1,28.2,19.9,29.3,19.9z"/>
		<path fill="#214BA0" d="M40.7,22.8c0,0.5-0.4,0.9-0.9,0.9s-0.9-0.4-0.9-0.9c0-0.5,0.4-0.9,0.9-0.9S40.7,22.3,40.7,22.8z
			 M39.1,11.6h1.3v9.5h-1.3V11.6z"/>
		<path fill="#214BA0" d="M48,17.6c-1.4-0.6-2.8-1.4-2.8-3.1c0-1.6,1.2-2.8,2.8-3V9.8h1v1.6c1.1,0.1,2,0.9,2.5,1.8l-1,0.7
			c-0.3-0.6-0.8-1.1-1.5-1.2v3.9c1.6,0.7,2.9,1.5,2.9,3.4c0,1.8-1.2,3.2-2.9,3.6v1.7h-1v-1.6c-1.7-0.1-3.1-1.4-3.4-3.1l1.3-0.4
			c0.1,1.1,1,2.1,2.1,2.2V17.6z M48,12.7c-0.8,0.2-1.5,0.9-1.5,1.8s0.8,1.4,1.5,1.7V12.7z M49,22.3c1-0.3,1.6-1.2,1.6-2.3
			c0-1-0.8-1.6-1.6-2V22.3z"/>
	</g>
	<g>
		<path fill="#214BA0" d="M130.7,11.6h1.2l-0.1,2.2l2.1-0.8l0.4,1.1l-2.2,0.6l1.4,1.7l-1,0.7l-1.2-1.9l-1.2,1.9l-1-0.7l1.4-1.7
			l-2.2-0.6l0.4-1.1l2.1,0.8L130.7,11.6z"/>
		<path fill="#214BA0" d="M141.3,11.6h1.1l3.3,6.8h-1.4l-2.4-5.2l-2.5,5.2H138L141.3,11.6z"/>
		<path fill="#214BA0" d="M152.6,11.6l-0.6,3.2h2l0.6-3.2h1.3l-0.6,3.2h1.5V16H155l-0.5,2.7h1.6V20h-1.8l-0.6,3.5h-1.2l0.6-3.5h-1.9
			l-0.7,3.5h-1.2L150,20h-1.6v-1.2h1.8l0.5-2.7h-1.7v-1.2h1.9l0.6-3.2H152.6z M151.4,18.7h1.9l0.5-2.7h-1.9L151.4,18.7z"/>
	</g>
</g>
<g id="Layer_2">
</g>
</svg>
