<?xml version="1.0" encoding="utf-8"?>
<!-- Generator: Adobe Illustrator 18.1.1, SVG Export Plug-In . SVG Version: 6.00 Build 0)  -->
<!DOCTYPE svg PUBLIC "-//W3C//DTD SVG 1.1//EN" "http://www.w3.org/Graphics/SVG/1.1/DTD/svg11.dtd">
<svg version="1.1" xmlns="http://www.w3.org/2000/svg" xmlns:xlink="http://www.w3.org/1999/xlink" x="0px" y="0px"
	 viewBox="0 0 294.5 185.3" enable-background="new 0 0 294.5 185.3" xml:space="preserve">
<g id="Layer_1">
	<ellipse stroke="#000000" stroke-width="1.5" stroke-miterlimit="10" cx="252.3" cy="83.5" rx="8" ry="7.2"/>
	<path fill="#FFFFFF" stroke="#000000" stroke-width="1.5" stroke-miterlimit="10" d="M81.2,120.5c-0.3,1.9-10.2,29.4-10.2,29.4
		s-0.8,2.8,2.4,3.4c3.2,0.6,3.7-2.3,3.7-2.3l10.2-29.4L81.2,120.5z"/>
	<path fill="#FFFFFF" stroke="#000000" stroke-width="1.5" stroke-miterlimit="10" d="M99.3,126.3c0.4,1.9,9.7,24,9.7,24
		s0.3,2.9,3.4,2.3c3.2-0.6,2.6-3.5,2.6-3.5l-11.4-32.8L99.3,126.3z"/>
	<path stroke="#000000" stroke-width="1.5" stroke-miterlimit="10" d="M76.2,99.8c0,0-4.4,16.7,0,21.4s27.6,5.1,31.6,2.2
		c2.2-1.6,3.8-0.9,0.6-23.6H76.2z"/>
	<path fill="#FFFFFF" stroke="#000000" stroke-width="1.5" stroke-miterlimit="10" d="M108.3,99.8c0,9.2-6.3,16.7-15.5,16.7
		S77.3,109,77.3,99.8s6.3-15.5,15.5-15.5S108.3,90.6,108.3,99.8z"/>
	<path stroke="#000000" stroke-width="1.5" stroke-miterlimit="10" d="M99.7,85.3c0,0-7.1,15.2-23.5,15.2c0,0-0.1-8.4,6.7-13.4
		C91.1,81.2,99.7,85.3,99.7,85.3z"/>
	<path d="M85.1,106.2h14.6c0,0-1.3,5.9-7.3,5.9S85.1,106.2,85.1,106.2z"/>
	<path fill="#FFFFFF" stroke="#000000" stroke-width="1.5" stroke-miterlimit="10" d="M81.9,155.7c0,2-0.1,23.6-0.1,23.6
		s-0.4,2.9,3.7,2.9s4.1-2.9,4.1-2.9l0.1-23.6L81.9,155.7z"/>
	<path fill="#FFFFFF" stroke="#000000" stroke-width="1.5" stroke-miterlimit="10" d="M96.1,155.7c0,2-0.1,23.6-0.1,23.6
		s-0.4,2.9,3.7,2.9c4.1,0,4.1-2.9,4.1-2.9l0.1-23.6L96.1,155.7z"/>
	<path fill="#B0AEA1" stroke="#000000" stroke-width="1.5" stroke-miterlimit="10" d="M92.6,116.6c16,0,18.4,44.9,18.4,44.9H76.2
		C76.2,161.5,76.6,116.6,92.6,116.6z"/>
	<path d="M87.4,118l-1.7,6.1l6.9-5.1l6.8,5.1l-1.8-6.5c0,0-3.9-1.3-5.2-1.3C91.1,116.3,87.4,118,87.4,118z"/>
	<path fill="#EFEFE7" stroke="#000000" stroke-width="1.5" stroke-miterlimit="10" d="M97.2,97.9c0,0,2.9,2.9,5.3,0"/>
	<path fill="none" stroke="#000000" stroke-width="1.5" stroke-miterlimit="10" d="M83.9,97.9c0,0,2.9,2.9,5.3,0"/>
	<path fill="#FFFFFF" stroke="#000000" stroke-width="1.5" stroke-miterlimit="10" d="M250.1,123.5c0,2,6.3,25.5,6.3,25.5
		s-0.3,2.9,2.9,2.9c3.2,0,3.2-2.9,3.2-2.9l-9.5-28.8c-0.9-0.7-4.3-2.4-4.9-1.4C247.6,120,250.1,123.5,250.1,123.5z"/>
	<path fill="#FFFFFF" stroke="#000000" stroke-width="1.5" stroke-miterlimit="10" d="M234.6,123.5c0,2-6.3,25.5-6.3,25.5
		s0.3,2.9-2.9,2.9c-3.2,0-3.2-2.9-3.2-2.9l9.5-28.8c0.9-0.7,4.3-2.4,4.9-1.4C237.1,120,234.6,123.5,234.6,123.5z"/>
	<path fill="#FFFFFF" stroke="#000000" stroke-width="1.5" stroke-miterlimit="10" d="M257.8,99.8c0,9.2-6.3,16.7-15.5,16.7
		c-9.2,0-15.5-7.5-15.5-16.7s6.3-15.5,15.5-15.5C251.5,84.3,257.8,90.6,257.8,99.8z"/>
	<path stroke="#000000" stroke-width="1.5" stroke-miterlimit="10" d="M249.2,85.3c0,0,2.2,20.9-25.6,16.9c0,0,0.9-10.9,7.7-15.8
		C239.5,80.5,249.2,85.3,249.2,85.3z"/>
	<path stroke="#000000" stroke-width="1.5" stroke-miterlimit="10" d="M236.3,85.3c0,0,16-1.8,23.5,15.2c0,0,0.1-8.4-6.7-13.4
		C244.9,81.2,236.3,85.3,236.3,85.3z"/>
	<path fill="#FFFFFF" stroke="#000000" stroke-width="1.5" stroke-miterlimit="10" d="M231.4,155.7c0,2-0.1,23.6-0.1,23.6
		s-0.4,2.9,3.7,2.9c4.1,0,4.1-2.9,4.1-2.9l0.1-23.6L231.4,155.7z"/>
	<path fill="#FFFFFF" stroke="#000000" stroke-width="1.5" stroke-miterlimit="10" d="M245.5,155.7c0,2-0.1,23.6-0.1,23.6
		s-0.4,2.9,3.7,2.9c4.1,0,4.1-2.9,4.1-2.9l0.1-23.6L245.5,155.7z"/>
	<path fill="#B0AEA1" stroke="#000000" stroke-width="1.5" stroke-miterlimit="10" d="M242.1,116.6c16,0,10,25,10,25h-18
		C234,141.6,226.1,116.6,242.1,116.6z"/>
	<path fill="#EFEFE7" stroke="#000000" stroke-width="1.5" stroke-miterlimit="10" d="M246.7,97.9c0,0,2.9,2.9,5.3,0"/>
	<path fill="none" stroke="#000000" stroke-width="1.5" stroke-miterlimit="10" d="M233.4,97.9c0,0,2.9,2.9,5.3,0"/>
	<path fill="#FFFFFF" stroke="#000000" stroke-width="1.5" stroke-miterlimit="10" d="M159.5,140.6c0.7,1.6,0.5,2,0.5,2
		s0,4.3-3.3,4.3c-3.3,0-3.3-3-3.3-3l0.9-4.1L159.5,140.6z"/>
	<path fill="#FFFFFF" stroke="#000000" stroke-width="1.5" stroke-miterlimit="10" d="M183.5,141.2c0,2,0,2.8,0,2.8s-0.3,3,3,3
		c3.3,0,3.3-3,3.3-3l-0.9-4.1L183.5,141.2z"/>
	<path fill="#B0AEA1" stroke="#000000" stroke-width="1.5" stroke-miterlimit="10" d="M159.4,123.9l-0.1,17.7h23.3
		c0,0,0.4-5.1,0.6-13.5l0-4.3l3.3,6.6l-3.5,11.8l6.1-1.2l3.7-10.9l-8-14.1l-8.6-0.5c-1.4-0.5-3-0.8-4.8-0.8h-0.5
		c-1.9,0-3.5,0.3-4.8,0.8l-8.6,0.5l-9,13.6l4.2,11.4l6.1,1.2l-3.5-12l4.3-7.3L159.4,123.9z"/>
	<path fill="#FFFFFF" stroke="#000000" stroke-width="1.5" stroke-miterlimit="10" d="M187.5,96.3c0,9.5-6.5,17.1-15.9,17.1
		c-9.5,0-15.9-7.7-15.9-17.1s6.5-15.9,15.9-15.9C181.1,80.4,187.5,86.8,187.5,96.3z"/>
	<path fill="none" stroke="#000000" stroke-width="1.5" stroke-miterlimit="10" d="M163.7,102.3c0,0,1.3,4.8,7.5,4.8
		s7.5-4.8,7.5-4.8"/>
	<path fill="#FFFFFF" stroke="#000000" stroke-width="1.5" stroke-miterlimit="10" d="M161.8,156.1c0,2-4.2,23.6-4.2,23.6
		s-0.4,3,3.8,3c4.2,0,4.2-3,4.2-3l4.2-23.6L161.8,156.1z"/>
	<path fill="#FFFFFF" stroke="#000000" stroke-width="1.5" stroke-miterlimit="10" d="M171.3,156.1c0,2,3.9,23.6,3.9,23.6
		s-0.4,3,3.8,3c4.2,0,4.2-3,4.2-3l-3.9-23.6L171.3,156.1z"/>
	<path d="M166,114.7l-1.7,4.9l7.1-3.8l7,3.8l-1.9-4.7c0,0-4-1.3-5.3-1.4C169.8,113.5,166,114.7,166,114.7z"/>
	<path fill="#EFEFE7" stroke="#000000" stroke-width="1.5" stroke-miterlimit="10" d="M176.1,94.4c0,0,3,3,5.4,0"/>
	<path fill="none" stroke="#000000" stroke-width="1.5" stroke-miterlimit="10" d="M162.4,94.4c0,0,3,3,5.4,0"/>
	<polygon points="159.3,141.6 182.6,141.6 183.5,177 174.7,177 171.4,156.1 170,156.1 166.7,177 157.9,177 	"/>
	<path d="M232.8,137h20c0,0,2.6,9.4,2.8,11.1c0.5,7.2-1.9,28.9-1.9,28.9h-8.6l-1.8-20.9H242l-3.3,20.9h-7.4c0,0-2.7-21.7-1.3-28.7
		C230.3,146.5,232.8,137,232.8,137z"/>
	<path fill="none" stroke="#000000" stroke-width="1.5" stroke-miterlimit="10" d="M174.2,80.8c0,0,11.9,5.4,13.8-4.8"/>
	<path fill="none" stroke="#000000" stroke-width="1.5" stroke-miterlimit="10" d="M173.9,80.5c3.2,1.1,11.3,1.8,10.8-6.5"/>
	<path fill="none" stroke="#000000" stroke-width="1.5" stroke-miterlimit="10" d="M174.2,80.8c0,0,10.1,0,6.2-9.5"/>
	<polygon points="171.4,116.3 169.7,117.6 168.6,128.7 171.4,131.5 173.9,128.8 173,117.6 	"/>
	<path fill="#FFFFFF" stroke="#000000" stroke-width="1.5" stroke-miterlimit="10" d="M39,97c0,9.5-6.5,17.1-15.9,17.1
		S7.2,106.5,7.2,97s6.5-15.9,15.9-15.9S39,87.6,39,97z"/>
	<path fill="none" stroke="#000000" stroke-width="1.5" stroke-miterlimit="10" d="M15.2,103c0,0,1.3,4.8,7.5,4.8s7.5-4.8,7.5-4.8"
		/>
	<path fill="#EFEFE7" stroke="#000000" stroke-width="1.5" stroke-miterlimit="10" d="M27.6,95.1c0,0,3,3,5.4,0"/>
	<path fill="none" stroke="#000000" stroke-width="1.5" stroke-miterlimit="10" d="M13.9,95.1c0,0,3,3,5.4,0"/>
	<path d="M236.6,117.9c0,0,2.6,2.5,5.3,2.5s4.8-2.5,4.8-2.5S242.8,115.1,236.6,117.9z"/>
	<path fill="none" stroke="#000000" stroke-width="1.5" stroke-miterlimit="10" d="M237.2,110c0,0,1.8,2.1,5.1,1.5
		c6.1-1,7.5-4.8,7.5-4.8"/>
	<path d="M15,82.2c0,0-4.1,14.1,25.5,11.4c0,0-3.1-12.2-13.3-13.6C19.3,78.9,15,82.2,15,82.2z"/>
	<path d="M16.5,81.4c0,0-3.3,9.7-10.8,14.8c0,0-0.3-5.9,1.9-8.7C10.7,83.5,16.5,81.4,16.5,81.4z"/>
	<path fill="#FFFFFF" stroke="#000000" stroke-width="1.5" stroke-miterlimit="10" d="M13.6,118.8c0,2-4.9,25.5-4.9,25.5
		s0.3,2.9-2.9,2.9c-3.2,0-3.2-2.9-3.2-2.9l6.7-25.5L13.6,118.8z"/>
	<path fill="#FFFFFF" stroke="#000000" stroke-width="1.5" stroke-miterlimit="10" d="M32.5,118.8c0,2,4.9,25.5,4.9,25.5
		s-0.3,2.9,2.9,2.9c3.2,0,3.2-2.9,3.2-2.9l-6.7-25.5L32.5,118.8z"/>
	<path fill="#B0AEA1" stroke="#000000" stroke-width="1.5" stroke-miterlimit="10" d="M11.7,124.2L11.6,142h22.7c0,0,0.4-9,0.6-17.2
		l0-0.7c-0.1,4.6-0.3,11.9-0.3,11.9l2.5,6.6l5.9-1.2l-6.5-24.3l-8.4-0.5c-1.3-0.5-2.9-0.8-4.7-0.8h-0.5c-1.8,0-3.4,0.3-4.7,0.8
		l-8.4,0.5l-6.5,24.3l5.9,1.2l2.4-7c0,0,0-6.9,0.1-11.8"/>
	<path fill="#FFFFFF" stroke="#000000" stroke-width="1.5" stroke-miterlimit="10" d="M14,156.2c0,2-2.8,23-2.8,23s-0.4,2.9,3.7,2.9
		s4.1-2.9,4.1-2.9l2.8-23L14,156.2z"/>
	<path fill="#FFFFFF" stroke="#000000" stroke-width="1.5" stroke-miterlimit="10" d="M23.3,156.2c0,2,2.6,23,2.6,23
		s-0.4,2.9,3.7,2.9s4.1-2.9,4.1-2.9l-2.6-23L23.3,156.2z"/>
	<polygon points="12.5,142 33.6,142 33.9,176.5 25.9,176.5 23.4,156.2 21.5,156.2 19,176.5 11,176.5 	"/>
	<path d="M17.9,115.8c0,0,2.6,2.5,5.3,2.5s4.8-2.5,4.8-2.5S24.1,112.9,17.9,115.8z"/>
	<polygon points="26.3,122.9 32.5,122.9 32.5,129.8 29.7,129.7 26.3,129.8 	"/>
	<path fill="#FFFFFF" stroke="#000000" stroke-width="1.5" stroke-miterlimit="10" d="M45.8,68.6v-16h64.3c0.7,0,1.3-0.5,1.3-1.1
		V5.6c0-0.6-0.6-1.1-1.3-1.1H12.5c-0.7,0-1.3,0.5-1.3,1.1v45.8c0,0.6,0.6,1.1,1.3,1.1h19.6C36.5,55.6,45.8,62.7,45.8,68.6"/>
	<g>
		<path fill="#214BA0" d="M57.9,26.4v-7.6H60v18.7h-2.1v-9.2h-9.6v9.2h-2.1V18.9h2.1v7.6H57.9z"/>
		<path fill="#214BA0" d="M68.1,21.5c0,0.8-0.6,1.4-1.4,1.4c-0.8,0-1.4-0.6-1.4-1.4c0-0.8,0.6-1.4,1.4-1.4
			C67.4,20.1,68.1,20.7,68.1,21.5z M67.7,37.5h-2V25.9h2V37.5z"/>
		<path fill="#214BA0" d="M77,36.4c0,0.8-0.6,1.4-1.4,1.4c-0.8,0-1.4-0.6-1.4-1.4c0-0.7,0.6-1.4,1.4-1.4C76.4,35.1,77,35.7,77,36.4z
			 M74.6,18.9h2v14.9h-2V18.9z"/>
	</g>
	<path fill="#FFFFFF" stroke="#000000" stroke-width="1.5" stroke-miterlimit="10" d="M255.6,67.8v-16H131.3c-0.7,0-1.3-0.5-1.3-1.1
		V4.8c0-0.6,0.6-1.1,1.3-1.1l157.5,0c0.7,0,1.3,0.5,1.3,1.1v45.8c0,0.6-0.6,1.1-1.3,1.1h-19.6C264.9,54.8,255.6,61.9,255.6,67.8"/>
	<g>
		<path fill="#214BA0" d="M159,34.8h5.2v1.9H157V18.1h2.1V34.8z"/>
		<path fill="#214BA0" d="M168.7,31.3c0,2.2,1.6,3.9,3.8,3.9c1.7,0,2.8-1,3.5-2.4l1.7,1c-1.1,2.1-3,3.3-5.4,3.3
			c-3.5,0-5.7-2.7-5.7-6c0-3.4,2-6.3,5.6-6.3c3.7,0,5.7,3.1,5.5,6.6H168.7z M175.8,29.7c-0.3-1.7-1.7-3-3.4-3c-1.7,0-3.3,1.4-3.5,3
			H175.8z"/>
		<path fill="#214BA0" d="M184.2,36.7h-2v-9.8H181v-1.8h1.2v-4.2h2v4.2h2.1v1.8h-2.1V36.7z"/>
		<path fill="#214BA0" d="M193.3,18.4l-2.8,6.3l-1.3-0.5l2.3-6.5L193.3,18.4z"/>
		<path fill="#214BA0" d="M201.6,27.8c-0.3-0.6-0.9-1.2-1.6-1.2c-0.7,0-1.4,0.5-1.4,1.3c0,1.1,1.3,1.5,2.7,2s2.7,1.4,2.7,3.3
			c0,2.2-1.8,3.8-3.9,3.8c-2,0-3.5-1.1-4.1-2.9l1.8-0.7c0.5,1.1,1.1,1.9,2.4,1.9c1.1,0,1.9-0.7,1.9-1.8c0-2.6-5.3-1.7-5.3-5.4
			c0-2,1.6-3.3,3.5-3.3c1.3,0,2.6,0.9,3.1,2.2L201.6,27.8z"/>
		<path fill="#214BA0" d="M219.5,36.7h-2v-9.8h-1.2v-1.8h1.2v-4.2h2v4.2h2.1v1.8h-2.1V36.7z"/>
		<path fill="#214BA0" d="M235.5,36.7h-2v-1.6h0c-1,1.3-2.4,1.9-4,1.9c-3.4,0-5.6-2.9-5.6-6.1c0-3.3,2.1-6.2,5.6-6.2
			c1.6,0,3,0.7,4,2h0v-1.7h2V36.7z M225.9,30.8c0,2.3,1.3,4.4,3.8,4.4c2.6,0,3.9-2.1,3.9-4.4c0-2.3-1.5-4.2-3.9-4.2
			C227.4,26.6,225.9,28.6,225.9,30.8z"/>
		<path fill="#214BA0" d="M242.6,36.7h-2V16.3h2V36.7z"/>
		<path fill="#214BA0" d="M249.6,29.4l4.2-4.3h2.7l-5,5l5.9,6.7h-2.6l-4.7-5.3l-0.5,0.5v4.8h-2V16.3h2V29.4z"/>
		<path fill="#214BA0" d="M264.2,35.6c0,0.8-0.6,1.4-1.4,1.4c-0.8,0-1.4-0.6-1.4-1.4c0-0.7,0.6-1.4,1.4-1.4
			C263.6,34.3,264.2,34.9,264.2,35.6z"/>
	</g>
</g>
<g id="Layer_2">
</g>
</svg>
