<?xml version="1.0" encoding="utf-8"?>
<!-- Generator: Adobe Illustrator 18.1.1, SVG Export Plug-In . SVG Version: 6.00 Build 0)  -->
<!DOCTYPE svg PUBLIC "-//W3C//DTD SVG 1.1//EN" "http://www.w3.org/Graphics/SVG/1.1/DTD/svg11.dtd">
<svg version="1.1" id="Layer_1" xmlns="http://www.w3.org/2000/svg" xmlns:xlink="http://www.w3.org/1999/xlink" x="0px" y="0px"
	 viewBox="0 0 1224 792" enable-background="new 0 0 1224 792" xml:space="preserve">
<ellipse stroke="#000000" stroke-width="4.2734" stroke-miterlimit="10" cx="1004.9" cy="347.6" rx="32.1" ry="29"/>
<path fill="#FFFFFF" stroke="#000000" stroke-width="4.2734" stroke-miterlimit="10" d="M319.4,495.9
	c-1.4,7.9-40.8,117.8-40.8,117.8s-3.2,11.4,9.6,13.5s14.8-9.3,14.8-9.3l40.8-117.8L319.4,495.9z"/>
<path fill="#FFFFFF" stroke="#000000" stroke-width="4.2734" stroke-miterlimit="10" d="M391.7,519.4c1.5,7.7,39,96.4,39,96.4
	s1.1,11.7,13.8,9.3c12.7-2.4,10.4-13.9,10.4-13.9l-45.6-131.5L391.7,519.4z"/>
<path stroke="#000000" stroke-width="4.2734" stroke-miterlimit="10" d="M299.1,412.9c0,0-17.6,66.8,0,85.5
	c17.6,18.7,110.6,20.4,126.6,9c9-6.3,15.2-3.5,2.4-94.5H299.1z"/>
<path fill="#FFFFFF" stroke="#000000" stroke-width="4.2734" stroke-miterlimit="10" d="M428.1,412.9c0,36.9-25.2,66.8-62.2,66.8
	s-62.2-30-62.2-66.8s25.2-62.2,62.2-62.2C402.9,350.7,428.1,376,428.1,412.9z"/>
<path stroke="#000000" stroke-width="4.2734" stroke-miterlimit="10" d="M393.4,355.1c0,0-28.7,60.9-94.3,60.9
	c0,0-0.4-33.8,26.7-53.5C358.9,338.6,393.4,355.1,393.4,355.1z"/>
<path d="M335.1,438.6h58.4c0,0-5.1,23.5-29.1,23.5C340.2,462.1,335.1,438.6,335.1,438.6z"/>
<path fill="#FFFFFF" stroke="#000000" stroke-width="4.2734" stroke-miterlimit="10" d="M322.2,637.1c0,7.9-0.6,94.7-0.6,94.7
	s-1.5,11.7,14.9,11.8c16.5,0.1,16.6-11.7,16.6-11.7l0.6-94.7L322.2,637.1z"/>
<path fill="#FFFFFF" stroke="#000000" stroke-width="4.2734" stroke-miterlimit="10" d="M378.7,637.3c0,7.9-0.6,94.7-0.6,94.7
	s-1.5,11.7,14.9,11.8c16.5,0.1,16.6-11.7,16.6-11.7l0.6-94.7L378.7,637.3z"/>
<path fill="#B0AEA1" stroke="#000000" stroke-width="4.2734" stroke-miterlimit="10" d="M364.9,480.3c64.3,0,73.7,179.9,73.7,179.9
	H299.1C299.1,660.2,300.7,480.3,364.9,480.3z"/>
<path d="M344,486.2l-6.8,24.5l27.7-20.4l27.3,20.4l-7.3-26.3c0,0-15.5-5.2-20.8-5.3C358.8,479.1,344,486.2,344,486.2z"/>
<path fill="#EFEFE7" stroke="#000000" stroke-width="4.2734" stroke-miterlimit="10" d="M383.5,405.4c0,0,11.8,11.7,21.2,0"/>
<path fill="none" stroke="#000000" stroke-width="4.2734" stroke-miterlimit="10" d="M330.1,405.4c0,0,11.8,11.7,21.2,0"/>
<path fill="#FFFFFF" stroke="#000000" stroke-width="4.2734" stroke-miterlimit="10" d="M996.4,508.1c0,7.9,25.3,102.1,25.3,102.1
	s-1.3,11.7,11.7,11.8c12.9,0.1,12.9-11.7,12.9-11.7L1008,494.9c-3.8-3-17.4-9.7-19.6-5.5C986.1,493.9,996.4,508.1,996.4,508.1z"/>
<path fill="#FFFFFF" stroke="#000000" stroke-width="4.2734" stroke-miterlimit="10" d="M934,508.1c0,7.9-25.3,102.1-25.3,102.1
	s1.3,11.7-11.7,11.8c-12.9,0.1-12.9-11.7-12.9-11.7l38.3-115.5c3.8-3,17.4-9.7,19.6-5.5C944.3,493.9,934,508.1,934,508.1z"/>
<path fill="#FFFFFF" stroke="#000000" stroke-width="4.2734" stroke-miterlimit="10" d="M1027.3,412.9c0,36.9-25.2,66.8-62.2,66.8
	c-37,0-62.2-30-62.2-66.8s25.2-62.2,62.2-62.2C1002.1,350.7,1027.3,376,1027.3,412.9z"/>
<path stroke="#000000" stroke-width="4.2734" stroke-miterlimit="10" d="M992.6,355.1c0,0,8.9,83.7-102.7,68c0,0,3.5-43.5,30.8-63.2
	C953.7,335.8,992.6,355.1,992.6,355.1z"/>
<path stroke="#000000" stroke-width="4.2734" stroke-miterlimit="10" d="M940.9,355.1c0,0,64-7.5,94.3,60.9c0,0,0.4-33.8-26.7-53.5
	C975.5,338.6,940.9,355.1,940.9,355.1z"/>
<path fill="#FFFFFF" stroke="#000000" stroke-width="4.2734" stroke-miterlimit="10" d="M921.4,637.1c0,7.9-0.6,94.7-0.6,94.7
	s-1.5,11.7,14.9,11.8c16.5,0.1,16.6-11.7,16.6-11.7l0.6-94.7L921.4,637.1z"/>
<path fill="#FFFFFF" stroke="#000000" stroke-width="4.2734" stroke-miterlimit="10" d="M977.9,637.3c0,7.9-0.6,94.7-0.6,94.7
	s-1.5,11.7,14.9,11.8s16.6-11.7,16.6-11.7l0.6-94.7L977.9,637.3z"/>
<path fill="#B0AEA1" stroke="#000000" stroke-width="4.2734" stroke-miterlimit="10" d="M964.1,480.3c64.3,0,40.1,100.3,40.1,100.3
	h-72.3C931.9,580.6,899.9,480.3,964.1,480.3z"/>
<path fill="#EFEFE7" stroke="#000000" stroke-width="4.2734" stroke-miterlimit="10" d="M982.6,405.4c0,0,11.8,11.7,21.2,0"/>
<path fill="none" stroke="#000000" stroke-width="4.2734" stroke-miterlimit="10" d="M929.3,405.4c0,0,11.8,11.7,21.2,0"/>
<path fill="#FFFFFF" stroke="#000000" stroke-width="4.2734" stroke-miterlimit="10" d="M633,576.6c2.7,6.3,2,8,2,8
	s0,17.3-13.2,17.3c-13.2,0-13.2-12.1-13.2-12.1l3.5-16.3L633,576.6z"/>
<path fill="#FFFFFF" stroke="#000000" stroke-width="4.2734" stroke-miterlimit="10" d="M729.2,578.8c0,8.2,0,11.1,0,11.1
	s-1.3,12.1,12.1,12.1c13.2,0,13.2-12.1,13.2-12.1l-3.5-16.3L729.2,578.8z"/>
<path fill="#B0AEA1" stroke="#000000" stroke-width="4.2734" stroke-miterlimit="10" d="M632.7,509.8l-0.4,70.8h93.4
	c0,0,1.7-20.3,2.4-54l-0.1-17.3l13.2,26.4L727.1,583l24.5-4.9l14.9-43.5L734.5,478l-34.6-2.1c-5.5-2-11.8-3.1-19.3-3.1h-2.1
	c-7.5,0-13.8,1.1-19.3,3.1l-34.6,2.1l-36.2,54.4l16.7,45.6l24.5,4.9l-14.4-48l17.2-29.3L632.7,509.8z"/>
<path fill="#FFFFFF" stroke="#000000" stroke-width="4.2734" stroke-miterlimit="10" d="M745.4,398.8c0,37.8-25.9,68.7-63.7,68.7
	s-63.7-30.7-63.7-68.7c0-37.8,25.9-63.7,63.7-63.7S745.4,361,745.4,398.8z"/>
<path fill="none" stroke="#000000" stroke-width="4.2734" stroke-miterlimit="10" d="M650,422.9c0,0,5.2,19.3,30,19.3
	s30-19.3,30-19.3"/>
<path fill="#FFFFFF" stroke="#000000" stroke-width="4.2734" stroke-miterlimit="10" d="M642.2,638.7c0,8.2-16.7,94.8-16.7,94.8
	s-1.5,12,15.3,12.1c16.9,0.1,17-12,17-12l16.7-94.8L642.2,638.7z"/>
<path fill="#FFFFFF" stroke="#000000" stroke-width="4.2734" stroke-miterlimit="10" d="M680.5,638.8c0,8.2,15.6,94.8,15.6,94.8
	s-1.5,12,15.3,12.1c16.9,0.1,17-12,17-12L712.9,639L680.5,638.8z"/>
<path d="M659,472.8l-6.9,19.6l28.6-15.3l28,15.3l-7.5-19c0,0-15.9-5.3-21.4-5.3C674.3,468,659,472.8,659,472.8z"/>
<path fill="#EFEFE7" stroke="#000000" stroke-width="4.2734" stroke-miterlimit="10" d="M699.6,391.2c0,0,12.1,12.1,21.7,0"/>
<path fill="none" stroke="#000000" stroke-width="4.2734" stroke-miterlimit="10" d="M644.8,391.2c0,0,12.1,12.1,21.7,0"/>
<polygon points="632.3,580.6 725.7,580.6 729.2,722.5 693.9,722.5 680.7,638.8 675.2,638.8 662.1,722.5 626.6,722.5 "/>
<path d="M927,562.3h80.3c0,0,10.6,37.8,11.1,44.3c2.1,29-7.7,116.1-7.7,116.1h-34.3l-7-83.9h-5.5l-13.2,83.9h-30
	c0,0-11-86.9-5.2-115.2C917,600.3,927,562.3,927,562.3z"/>
<path fill="none" stroke="#000000" stroke-width="4.2734" stroke-miterlimit="10" d="M691.9,336.8c0,0,47.7,21.7,55.4-19.1"/>
<path fill="none" stroke="#000000" stroke-width="4.2734" stroke-miterlimit="10" d="M690.6,335.5c12.7,4.2,45.2,7.2,43.3-26"/>
<path fill="none" stroke="#000000" stroke-width="4.2734" stroke-miterlimit="10" d="M691.9,336.8c0,0,40.4,0.1,24.6-38.1"/>
<polygon points="680.7,479 674,484.4 669.7,528.8 680.7,540.2 690.8,529.4 687.3,484.4 "/>
<path fill="#FFFFFF" stroke="#000000" stroke-width="4.2734" stroke-miterlimit="10" d="M150.1,401.9c0,37.8-25.9,68.7-63.7,68.7
	s-63.7-30.7-63.7-68.7s25.9-63.7,63.7-63.7S150.1,364.1,150.1,401.9z"/>
<path fill="none" stroke="#000000" stroke-width="4.2734" stroke-miterlimit="10" d="M54.7,426c0,0,5.2,19.3,30,19.3
	s30-19.3,30-19.3"/>
<path fill="#EFEFE7" stroke="#000000" stroke-width="4.2734" stroke-miterlimit="10" d="M104.4,394.3c0,0,12.1,12.1,21.7,0"/>
<path fill="none" stroke="#000000" stroke-width="4.2734" stroke-miterlimit="10" d="M49.5,394.3c0,0,12.1,12.1,21.7,0"/>
<path d="M942.3,485.8c0,0,10.6,10.1,21.1,10.1c10.6,0,19.3-10.1,19.3-10.1S967.1,474.2,942.3,485.8z"/>
<path fill="none" stroke="#000000" stroke-width="4.2734" stroke-miterlimit="10" d="M944.7,453.8c0,0,7.2,8.3,20.4,6.2
	c24.5-3.8,30-19.3,30-19.3"/>
<path d="M53.9,342.5c0,0-16.5,56.4,102,45.7c0,0-12.2-48.7-53.5-54.4C71.2,329.3,53.9,342.5,53.9,342.5z"/>
<path d="M59.9,339.4c0,0-13.2,39-43.5,59.4c0,0-1.3-23.5,7.5-34.9C36.6,347.6,59.9,339.4,59.9,339.4z"/>
<path fill="#FFFFFF" stroke="#000000" stroke-width="4.2734" stroke-miterlimit="10" d="M48.5,489.3c0,7.9-19.7,102-19.7,102
	S30,603,17.2,603c-12.9,0-12.9-11.7-12.9-11.7l26.7-102H48.5z"/>
<path fill="#FFFFFF" stroke="#000000" stroke-width="4.2734" stroke-miterlimit="10" d="M124.2,489.3c0,7.9,19.7,102,19.7,102
	s-1.1,11.7,11.7,11.7c12.9,0,12.9-11.7,12.9-11.7l-26.7-102H124.2z"/>
<path fill="#B0AEA1" stroke="#000000" stroke-width="4.2734" stroke-miterlimit="10" d="M40.5,510.9l-0.3,71.3h91
	c0,0,1.7-36.2,2.4-69.1l-0.1-2.8c-0.3,18.6-1.3,47.7-1.3,47.7l9.8,26.6l23.8-4.8l-26-97.5l-33.8-2c-5.3-2-11.5-3.1-18.9-3.1h-2
	c-7.3,0-13.5,1.1-18.9,3.1l-33.8,2l-26,97.5l23.8,4.8l9.7-28c0,0,0-27.9,0.4-47.3"/>
<path fill="#FFFFFF" stroke="#000000" stroke-width="4.2734" stroke-miterlimit="10" d="M49.9,638.8c0,7.9-11.4,92.3-11.4,92.3
	s-1.5,11.7,14.9,11.8c16.5,0.1,16.6-11.7,16.6-11.7L81.5,639L49.9,638.8z"/>
<path fill="#FFFFFF" stroke="#000000" stroke-width="4.2734" stroke-miterlimit="10" d="M87.2,639c0,7.9,10.3,92.3,10.3,92.3
	s-1.5,11.7,14.9,11.8c16.5,0.1,16.6-11.7,16.6-11.7l-10.3-92.3L87.2,639z"/>
<polygon points="43.8,582.3 128.3,582.3 129.7,720.7 97.6,720.7 87.6,639 79.9,639 69.8,720.7 37.8,720.7 "/>
<path d="M65.6,477.2c0,0,10.6,10.1,21.1,10.1s19.3-10.1,19.3-10.1S90.5,465.6,65.6,477.2z"/>
<polygon points="99,505.7 124.2,505.7 124.2,533.2 112.8,532.9 99,533.2 "/>
<g>
	<path fill="#FFFFFF" stroke="#000000" stroke-width="7.0204" stroke-miterlimit="10" d="M147.7,287.8v-64.2h257.7
		c2.8,0,5.1-2,5.1-4.4V35.6c0-2.4-2.3-4.4-5.1-4.4h-391c-2.8,0-5.1,2-5.1,4.4v183.7c0,2.4,2.3,4.4,5.1,4.4H93
		C110.6,235.9,147.7,264.5,147.7,287.8"/>
	<g>
		<path fill="#214BA0" d="M196.3,119V88.6h8.3v74.8h-8.3v-36.7h-38.4v36.7h-8.3V88.6h8.3V119H196.3z"/>
		<path fill="#214BA0" d="M237.2,99.1c0,3.2-2.5,5.6-5.6,5.6c-3.1,0-5.6-2.5-5.6-5.6s2.5-5.6,5.6-5.6
			C234.7,93.5,237.2,96.2,237.2,99.1z M235.5,163.4h-7.9v-46.7h7.9V163.4z"/>
		<path fill="#214BA0" d="M272.8,159.1c0,3.1-2.5,5.6-5.6,5.6c-3.1,0-5.6-2.5-5.6-5.6c0-3,2.5-5.5,5.6-5.5
			C270.4,153.6,272.8,156.1,272.8,159.1z M263.2,88.6h8.2v59.7h-8.2V88.6z"/>
	</g>
</g>
<path fill="#FFFFFF" stroke="#000000" stroke-width="7.0204" stroke-miterlimit="10" d="M1018.5,284.6v-64.2H520.3
	c-2.8,0-5.1-2-5.1-4.4V32.3c0-2.4,2.3-4.4,5.1-4.4h631.4c2.8,0,5.1,2,5.1,4.4v183.7c0,2.4-2.3,4.4-5.1,4.4h-78.5
	C1055.6,232.7,1018.5,261.4,1018.5,284.6"/>
<g>
	<path fill="#214BA0" d="M631.3,152.5H652v7.7h-29V85.4h8.3V152.5L631.3,152.5z"/>
	<path fill="#214BA0" d="M670.1,138.5c0.1,8.6,6.2,15.6,15.3,15.6c6.8,0,11.1-4.1,14.2-9.6l6.8,3.9c-4.5,8.3-12,13.1-21.5,13.1
		c-13.9,0-22.8-10.7-22.8-24.1c0-13.8,8-25.2,22.7-25.2c15.1,0,22.9,12.4,22.1,26.3h-36.7V138.5z M698.4,131.8
		c-1.1-6.8-6.8-12.2-13.6-12.2c-6.9,0-13.2,5.5-14.2,12.2H698.4z"/>
	<path fill="#214BA0" d="M732,160.2h-7.9v-39.4h-4.9v-7.3h4.9V96.8h7.9v16.7h8.3v7.3H732V160.2z"/>
	<path fill="#214BA0" d="M768.6,86.8l-11.3,25.3L752,110l9.3-25.9L768.6,86.8z"/>
	<path fill="#214BA0" d="M801.9,124.3c-1.1-2.5-3.5-4.8-6.3-4.8s-5.8,2.3-5.8,5.2c0,4.2,5.3,5.9,10.8,8.2s10.8,5.6,10.8,13.4
		c0,8.9-7.2,15.2-15.8,15.2c-7.9,0-14.1-4.5-16.5-11.8l7-3c2,4.4,4.2,7.5,9.6,7.5c4.2,0,7.6-2.8,7.6-7.2c0-10.4-21.1-6.9-21.1-21.5
		c0-7.9,6.3-13.2,13.9-13.2c5.3,0,10.3,3.8,12.4,8.6L801.9,124.3z"/>
	<path fill="#214BA0" d="M873.5,160.2h-7.9v-39.4h-4.9v-7.3h4.9V96.8h7.9v16.7h8.3v7.3h-8.3V160.2z"/>
	<path fill="#214BA0" d="M937.7,160.2h-7.9v-6.5h-0.1c-4.1,5.2-9.6,7.7-16,7.7c-13.6,0-22.4-11.7-22.4-24.5
		c0-13.4,8.4-24.8,22.5-24.8c6.3,0,12.1,3,16,7.9h0.1v-6.6h7.9L937.7,160.2L937.7,160.2z M899.3,136.4c0,9.1,5.3,17.7,15.3,17.7
		c10.3,0,15.6-8.3,15.6-17.7c0-9.3-5.9-16.9-15.8-16.9C905.2,119.7,899.3,127.7,899.3,136.4z"/>
	<path fill="#214BA0" d="M966.1,160.2h-7.9V78.3h7.9V160.2z"/>
	<path fill="#214BA0" d="M994.4,130.8l17-17.3h10.7l-20,19.8l23.8,26.9h-10.6L996.6,139l-2.1,2.1v19.1h-7.9V78.3h7.9L994.4,130.8
		L994.4,130.8z"/>
	<path fill="#214BA0" d="M1052.8,155.8c0,3.1-2.5,5.6-5.6,5.6c-3.1,0-5.6-2.5-5.6-5.6c0-3,2.5-5.5,5.6-5.5
		C1050.2,150.4,1052.8,152.9,1052.8,155.8z"/>
</g>
</svg>
