<?xml version="1.0" encoding="utf-8"?>
<!-- Generator: Adobe Illustrator 18.1.1, SVG Export Plug-In . SVG Version: 6.00 Build 0)  -->
<!DOCTYPE svg PUBLIC "-//W3C//DTD SVG 1.1//EN" "http://www.w3.org/Graphics/SVG/1.1/DTD/svg11.dtd">
<svg version="1.1" id="Layer_1" xmlns="http://www.w3.org/2000/svg" xmlns:xlink="http://www.w3.org/1999/xlink" x="0px" y="0px"
	 viewBox="0 0 1224 792" enable-background="new 0 0 1224 792" xml:space="preserve">
<g>
	<path fill="#FFFFFF" stroke="#000000" stroke-width="4.2292" stroke-miterlimit="10" d="M1099.1,317H669c-0.6,0-0.9-0.5-0.9-0.9
		V52.3c0-0.6,0.5-0.9,0.9-0.9H1099c0.6,0,0.9,0.5,0.9,0.9v263.7C1100.2,316.4,1099.7,317,1099.1,317z"/>
	<polyline fill="none" stroke="#214BA0" stroke-width="4.2292" stroke-miterlimit="10" points="1065.4,95.6 1030.3,141.9 
		1019.6,133.5 942.8,227.7 886.8,171.7 865.2,194.8 799.5,133.5 765.7,171.4 744.6,154.8 692.7,227.7 	"/>
</g>
<path fill="#FFFFFF" stroke="#000000" stroke-width="4.2292" stroke-miterlimit="10" d="M242.5,323.1H8.9c-0.6,0-0.9-0.5-0.9-0.9
	V51.7c0-0.6,0.5-0.9,0.9-0.9h233.4c0.6,0,0.9,0.5,0.9,0.9v270.4C243.5,322.7,243,323.1,242.5,323.1z"/>
<path fill="#FFFFFF" stroke="#000000" stroke-width="4.2292" stroke-linecap="round" stroke-miterlimit="10" d="M73.2,121.4H38.1
	c-0.6,0-0.9-0.5-0.9-0.9V89.1c0-0.6,0.5-0.9,0.9-0.9h35.1c0.6,0,0.9,0.5,0.9,0.9v31.3C74.1,121.1,73.8,121.4,73.2,121.4z"/>
<path fill="#FFFFFF" stroke="#000000" stroke-width="4.2292" stroke-linecap="round" stroke-miterlimit="10" d="M73.2,174.2H38.1
	c-0.6,0-0.9-0.5-0.9-0.9v-31.4c0-0.6,0.5-0.9,0.9-0.9h35.1c0.6,0,0.9,0.5,0.9,0.9v31.3C74.1,173.7,73.8,174.2,73.2,174.2z"/>
<path fill="#FFFFFF" stroke="#000000" stroke-width="4.2292" stroke-linecap="round" stroke-miterlimit="10" d="M73.2,227H38.1
	c-0.6,0-0.9-0.5-0.9-0.9v-31.3c0-0.6,0.5-0.9,0.9-0.9h35.1c0.6,0,0.9,0.5,0.9,0.9V226C74.1,226.6,73.8,227,73.2,227z"/>
<polyline fill="none" stroke="#214BA0" stroke-width="4.2292" stroke-linecap="round" stroke-miterlimit="10" points="47.4,98.7 
	60.5,111.7 97.5,70 "/>
<polyline fill="none" stroke="#214BA0" stroke-width="4.2292" stroke-linecap="round" stroke-miterlimit="10" points="47.4,152.6 
	60.5,165.7 97.5,123.9 "/>
<polyline fill="none" stroke="#214BA0" stroke-width="4.2292" stroke-linecap="round" stroke-miterlimit="10" points="47.4,204.8 
	60.5,217.7 97.5,176.1 "/>
<line fill="none" stroke="#000000" stroke-width="4.2292" stroke-linecap="round" stroke-miterlimit="10" x1="115.2" y1="102.6" x2="200.9" y2="102.6"/>
<line fill="none" stroke="#000000" stroke-width="4.2292" stroke-linecap="round" stroke-miterlimit="10" x1="115.2" y1="156.5" x2="200.9" y2="156.5"/>
<line fill="none" stroke="#000000" stroke-width="4.2292" stroke-linecap="round" stroke-miterlimit="10" x1="115.2" y1="216.8" x2="200.9" y2="216.8"/>
<path fill="#FFFFFF" stroke="#000000" stroke-width="4.2292" stroke-miterlimit="10" d="M633.8,50.9H273.7c-1.9,0-3.6,1.4-3.6,3.1
	v129.5c0,1.7,1.7,3.1,3.6,3.1h55.4c12.3,8.7,38.5,28.7,38.5,45.2v-45.2h266.3c1.9,0,3.6-1.4,3.6-3.1V53.8
	C637.5,52.2,636,50.9,633.8,50.9z"/>
<rect x="363.4" y="86.3" fill="none" width="148.8" height="149.9"/>
<text transform="matrix(1 0 0 1 363.3702 144.0269)" fill="#214BA0" font-family="'FuturaStd-Book'" font-size="69.9657" letter-spacing="3">@!$</text>
<g>
	<path fill="#B0AEA1" d="M833.6,568.1l0.8,40.8v96.9l-38.3-0.1c0,0,0.1-45.7,1.3-69.3c0.1-4.6-7-16-7-16l-12.1-15.8l39.9-25
		L833.6,568.1z"/>
	<path fill="none" stroke="#000000" stroke-width="5.6186" stroke-miterlimit="10" d="M836.9,594.1v13.4v96.9l-38.3-0.1
		c0,0,0.1-43.5,1.3-69.3c0.1-4.6-13-17-13-17"/>
	<polygon points="800.8,686 836.2,686.2 837.3,704.4 799.2,704.3 	"/>
	<polygon fill="#B0AEA1" points="464.2,645.1 461.3,697.3 427.3,697.3 434.8,526.5 433.5,506.9 474.4,523 473.1,550.4 	"/>
	<polyline fill="none" stroke="#000000" stroke-width="5.6186" stroke-miterlimit="10" points="431.1,539.2 427.3,700.1 
		461.3,700.1 	"/>
	<polygon points="427.9,701.6 463.3,700.1 461.3,684.7 427.8,684.7 	"/>
	<g>
		<path fill="#FFFFFF" d="M778.4,601.2c-2.6,1.4-5.6,2.7-8.8,4.2"/>
		<path fill="#FFFFFF" d="M715.4,599.1c0,0-14.1,16.6-7.5,21.9c6.6,5.2,15.7-17.2,15.7-17.2"/>
		<path fill="#FFFFFF" d="M740.6,611.9c0,0-2.7,20.3,5.7,21c8.4,0.7,3.8-21.5,3.8-21.5"/>
		<path fill="#FFFFFF" d="M777.8,600.4c0,0,0.2,0.2,0.6,0.8"/>
		<path fill="#FFFFFF" d="M778.4,601.2c2.6,3.8,13,18.7,6,21.5c-7.2,2.7-13.8-14.4-14.8-17.2"/>
		<path fill="#FFFFFF" d="M769.4,605.1c0,0,0,0.1,0.1,0.5"/>
	</g>
	<path fill="#B0AEA1" d="M478.6,305.3l385.1,3.1c0,0,14.9-3.9,13.9,17.9c-0.9,21.8-5,152.3,0,158.2l-1.9,227.6l-46.4,0.6L828.5,609
		c0,0,4-4.2-24.8-16.4c-35.1-14.7-42.7-40.3-49.5-40.8c-9.1-0.6-65.5,4.7-242.3,3.6L506.1,709l-48.4,3l-2.3-158.6
		c0,0-54.8-22.3-71.5-45c-12.2-16.6-28.5-64.8-28.5-89.9c0-28,59.8-112.1,59.8-112.1L478.6,305.3z"/>
	<path fill="none" d="M881.6,315c0,0,64.8-48.3,34,139.5c0,0-5.2,29.9,0,68.7c0,0-27.2,37.8,0,63.7"/>
	<path fill="none" d="M941.8,564.2c0-46.7-23.6-40.8-23.6-40.8s11.6,10.9,7.2,41.7"/>
	<path fill="none" stroke="#000000" stroke-width="5.6186" stroke-miterlimit="10" d="M429,305.3l434.7,1.5c0,0,15.4-1.5,13.9,17.9
		c-1.5,21.8-1.9,387.4-1.9,387.4l-46.4,0.6l-0.8-75.2c0,0-5.2-30.4-39.4-54.7c-55.6-39.7-61.3-75-65.4-102.8"/>
	<path fill="none" stroke="#000000" stroke-width="5.6186" stroke-miterlimit="10" d="M757.4,555.2L512,555.4l-5.8,155.1h-48.4
		l-2.4-157.2c0,0-42.2-16.2-61-35.2c-16.8-16.8-32.9-49.7-32.9-78.4"/>
	<path fill="none" stroke="#000000" stroke-width="5.6186" stroke-miterlimit="10" d="M682.5,553.2c0.5,2.5,16.2,47.2,56.8,51.9
		c41.9,4.7,60.5-19.5,59.3-15.3"/>
	<path fill="none" stroke="#000000" stroke-width="5.6186" stroke-miterlimit="10" d="M715.4,596.1c0,0-14.1,16.6-7.5,21.9
		c6.6,5.2,15.7-17.2,15.7-17.2"/>
	<path fill="none" stroke="#000000" stroke-width="5.6186" stroke-miterlimit="10" d="M740.6,607.5c0,0-2.7,21.8,5.7,22.5
		s3.8-22.9,3.8-22.9"/>
	<path fill="none" stroke="#000000" stroke-width="5.6186" stroke-miterlimit="10" d="M769.4,605.1c0,0,7.1,20.9,14.9,17.7
		c7.9-3.1-6.6-22.3-6.6-22.3"/>
	<path fill="none" stroke="#000000" stroke-width="5.6186" stroke-miterlimit="10" d="M877.1,313.7c0,0,69.3-48.3,38.5,139.5
		c0,0-5.2,29.9,0,68.7c0,0-27.2,37.8,0,63.7"/>
	<path fill="none" stroke="#000000" stroke-width="5.6186" stroke-miterlimit="10" d="M941.8,562.8c0-46.7-23.6-40.8-23.6-40.8
		s11.6,10.9,7.2,41.7"/>
	<polygon points="876.1,712.1 828.3,712.7 830.5,693.1 876.7,692 	"/>
	<polygon points="458.3,710.7 509.1,710.9 508,691.9 457.5,692.3 	"/>
	<path d="M748.4,631.4"/>
	<path fill="#B0AEA1" stroke="#000000" stroke-width="5.6186" stroke-miterlimit="10" d="M409.3,384.3l27.9-113.6l-4.7-10.6
		c0,0,10,28,43.4,28s35.2-28.6,35.2-28.6H363h-0.1H215.1c0,0,1.8,28.6,35.2,28.6s43.4-28,43.4-28l-6,10.6l27.9,113.6"/>
	<path fill="#FFFFFF" stroke="#000000" stroke-width="5.6186" stroke-miterlimit="10" d="M415.6,403.2c0,15.8-21.3,23.8-53.7,23.8
		s-52.4-8.1-52.4-23.8c0-26,20.3-28.6,52.4-28.6C394.2,374.7,415.6,372.6,415.6,403.2z"/>
	<line fill="none" stroke="#000000" stroke-width="5.6186" stroke-miterlimit="10" x1="287.6" y1="270.6" x2="315.4" y2="384.3"/>
	<ellipse cx="335.9" cy="395.5" rx="6.3" ry="4.6"/>
	<ellipse cx="390.2" cy="395.5" rx="6.3" ry="4.6"/>
	<path fill="none" stroke="#000000" stroke-width="5.6186" stroke-miterlimit="10" d="M317.7,309.8c0,0,13.2,15.2,29.4,0"/>
	<path fill="none" stroke="#000000" stroke-width="5.6186" stroke-miterlimit="10" d="M378,309.8c0,0,13.2,15.2,29.4,0"/>
	<path stroke="#000000" stroke-width="5.6186" stroke-miterlimit="10" d="M310.4,212.3c0-0.5,0-0.7-1.4-0.1
		c-4.3,1.8-13.8,8.3-13.8,22.5c0,19,10,24.2,10,24.2h10.4c0,0-16.8-9.5-15.2-25.6C302.2,216.9,309.8,216.8,310.4,212.3z"/>
	<path stroke="#000000" stroke-width="5.6186" stroke-miterlimit="10" d="M414,212.3c0-0.5,0-0.7,1.4-0.1
		c4.3,1.8,13.8,8.3,13.8,22.5c0,19-10,24.2-10,24.2h-10.4c0,0,16.8-9.5,15.2-25.6S414.6,216.8,414,212.3z"/>
	<path fill="#FFFFFF" stroke="#000000" stroke-width="5.6186" stroke-miterlimit="10" d="M392.3,424.8c0,10.7-8.4,14.8-30.2,14.8
		s-30.7-4.3-30.7-14.8H392.3z"/>
</g>
<g>
	<path fill="#FFFFFF" stroke="#000000" stroke-width="5.6186" stroke-miterlimit="10" d="M1048.3,484.2c3,7.6,56,91.9,56,91.9
		s3.1,11.7,15.5,7.2c12.5-4.6,8.3-16,8.3-16l-56-91.9L1048.3,484.2z"/>
	<path stroke="#000000" stroke-width="5.6186" stroke-miterlimit="10" d="M998.3,316.2c0,0-45.7,134.6-26.7,153.2
		c32,31.3,92.2,27.8,115,2.6c10.6-11.5,18.9-11.4,7.9-99.5L998.3,316.2z"/>
	<path fill="#FFFFFF" stroke="#000000" stroke-width="5.6186" stroke-miterlimit="10" d="M1094,368.6c5.6,37.5-25.9,68.6-63.7,68.6
		c-37.8,0-63.7-30.7-63.7-68.6s25.9-63.7,63.7-63.7C1065.1,304.9,1088.7,333,1094,368.6z"/>
	<path fill="#FFFFFF" stroke="#000000" stroke-width="5.6186" stroke-miterlimit="10" d="M1002.5,470.2
		c-7.6,3.1-90.3,37.9-90.3,37.9s-11.6,3.6-6.5,15.9c5.2,12.3,16.3,7.7,16.3,7.7l90.3-37.9L1002.5,470.2z"/>
	<path fill="#FFFFFF" stroke="#000000" stroke-width="5.6186" stroke-miterlimit="10" d="M997.6,600.6c0,8.2-0.6,98-0.6,98
		s-1.7,12.1,15.4,12.2c17.1,0.1,17.2-12.1,17.2-12.1l0.6-98L997.6,600.6z"/>
	<path fill="#FFFFFF" stroke="#000000" stroke-width="5.6186" stroke-miterlimit="10" d="M1024.6,600.6c0,8.2-0.6,98-0.6,98
		s-1.7,12.1,15.4,12.2c17.1,0.1,17.2-12.1,17.2-12.1l0.6-98L1024.6,600.6z"/>
	<path fill="#B0AEA1" stroke="#000000" stroke-width="5.6186" stroke-miterlimit="10" d="M1029.4,438.3
		c66.4,0,50.9,186.2,50.9,186.2H973.9C973.9,624.6,962.7,438.3,1029.4,438.3z"/>
	<path d="M1007.4,444.4l-7,25.3l28.7-21.1l28.3,21.1l-7.6-27.2c0,0-16.1-5.5-21.5-5.5C1023,437.2,1007.4,444.4,1007.4,444.4z"/>
	<path fill="none" stroke="#000000" stroke-width="5.6186" stroke-miterlimit="10" d="M986.9,367.2c0,0,12.2,12.1,21.9,0"/>
	<path stroke="#000000" stroke-width="5.6186" stroke-miterlimit="10" d="M1033.4,485.3c-26.7,0.2-66.3,14.5-21-104.4
		c8.2-21.5-41-24-32.4-53.6c0,0,76.1-60.4,114.6,34.2C1149.6,496.5,1068.7,485.1,1033.4,485.3z"/>
	<path fill="none" stroke="#000000" stroke-width="5.6186" stroke-miterlimit="10" d="M974.9,403.6c0,0,14.4,9.5,26.3,0"/>
</g>
<g>
	<path fill="#FFFFFF" stroke="#000000" stroke-width="5.6186" stroke-miterlimit="10" d="M126.8,625.9c2.4,8.2,27.8,78.3,27.8,78.3
		s2.1,12.5,18.9,7.5c17-5,13.3-17,13.3-17l-27.8-78.3L126.8,625.9z"/>
	<polygon points="110.3,584.9 148.6,695.1 186,683.7 147.8,573.6 	"/>
	<path fill="#FFFFFF" stroke="#000000" stroke-width="5.6186" stroke-miterlimit="10" d="M89.3,619.2c0,8.4-0.7,82.3-0.7,82.3
		s-1.7,12.5,16,12.6c17.7,0.1,17.7-12.3,17.7-12.3l0.7-82.3L89.3,619.2z"/>
	<rect x="85.4" y="575.3" width="38.1" height="115.8"/>
	<path fill="#FFFFFF" stroke="#000000" stroke-width="5.6186" stroke-miterlimit="10" d="M114.6,522c10.4-5.2,4.2-1.1,87.9-67.8
		c0,0,11.7-4.6,5.6-16.8c-6.3-12.3-17.3-6.6-17.3-6.6l-84.4,74.5L114.6,522z"/>
	<path fill="#B0AEA1" stroke="#000000" stroke-width="5.6186" stroke-miterlimit="10" d="M120,517.8c7.5-3.9,69.4-53,69.4-53
		l-12.2-23.4l-65.9,53.1"/>
	<polygon fill="#B0AEA1" stroke="#000000" stroke-width="5.6186" stroke-miterlimit="10" points="84.4,434.5 81.4,588.1 
		154.7,588.1 126.7,445.1 	"/>
	<path d="M92.7,430.4l0.2,13l51.5,16.4l-7.8-25.5c0,0-15.7-0.6-21.3-0.7C109.6,433.6,92.7,430.4,92.7,430.4z"/>
	<path fill="#FFFFFF" stroke="#000000" stroke-width="5.6186" stroke-miterlimit="10" d="M174.2,363.1c0,39.4-26.9,71.3-66.3,71.3
		s-66.4-31.8-66.4-71.3s26.9-66.3,66.3-66.3S174.2,323.8,174.2,363.1z"/>
	<path d="M84.4,430.4l0.2,13l51.5,16.4l-7.8-25.5c0,0-15.7-0.6-21.3-0.7C101.3,433.6,84.4,430.4,84.4,430.4z"/>
	<path fill="none" stroke="#000000" stroke-width="5.6186" stroke-miterlimit="10" d="M149.2,360.8c0,0-12.6-12.5-22.7,0"/>
	<path fill="none" stroke="#000000" stroke-width="5.6186" stroke-miterlimit="10" d="M118.7,298.5c0,0,49.8,22.5,57.8-19.8"/>
	<path fill="none" stroke="#000000" stroke-width="5.6186" stroke-miterlimit="10" d="M117.3,297.3c13.2,4.4,46.8,7.5,45.1-27"/>
	<path fill="none" stroke="#000000" stroke-width="5.6186" stroke-miterlimit="10" d="M118.7,298.5c0,0,41.7,0.1,25.5-39.7"/>
	<path fill="none" stroke="#000000" stroke-width="5.6186" stroke-miterlimit="10" d="M141,395.6c0,0,14.7,9.7,27.2,0"/>
	<path fill="#FFFFFF" stroke="#000000" stroke-width="5.6186" stroke-miterlimit="10" d="M99.6,484.7c0,8.4-21.8,94.6-21.8,94.6
		s-4.3,18.3-18,18.3S46,585.2,46,585.2l37.4-113.3"/>
	<polyline fill="#B0AEA1" stroke="#000000" stroke-width="5.6186" stroke-miterlimit="10" points="105,480.2 85.4,559.7 55.9,559.8 
		84.7,443.4 	"/>
</g>
</svg>
