<?xml version="1.0" encoding="utf-8"?>
<!-- Generator: Adobe Illustrator 18.1.1, SVG Export Plug-In . SVG Version: 6.00 Build 0)  -->
<!DOCTYPE svg PUBLIC "-//W3C//DTD SVG 1.1//EN" "http://www.w3.org/Graphics/SVG/1.1/DTD/svg11.dtd">
<svg version="1.1" id="Layer_1" xmlns="http://www.w3.org/2000/svg" xmlns:xlink="http://www.w3.org/1999/xlink" x="0px" y="0px"
	 viewBox="0 0 1630.6 1584" enable-background="new 0 0 1630.6 1584" xml:space="preserve">
<path fill="none" stroke="#000000" stroke-width="10.7941" stroke-miterlimit="10" d="M415.6,1096.1
	c-75-85.4-120.5-197.3-120.5-319.9c0-267.7,217-484.8,484.8-484.8s484.8,217,484.8,484.8c0,116.1-40.8,222.6-108.8,306.1"/>
<g>
	<path d="M485.1,1088l7.4,6.8L486,1157l0.1,0.1l32.7-35.2l10.2,9.5l-49.6,53.3l-7.4-6.8l6.5-62.2l-0.1-0.1l-33.1,35.5l-10.2-9.5
		L485.1,1088z"/>
	<path d="M588,1233.1l-11.4,11.4l-13.4-5.9l55-55.9l9.9,4.3l-4.7,78l-13.6-6l1-16L588,1233.1z M614,1203.8l-0.2-0.1l-17.6,20.6
		l15.5,6.8L614,1203.8z"/>
	<path d="M725.6,1217.3l19.8,1.8c20.6,1.8,33,18.4,31.2,38.7c-1.8,20-17.3,34.2-37.6,32.4l-19.7-1.7L725.6,1217.3z M734.3,1277.6
		l2.3,0.2c17.1,1.5,24.5-7.3,25.8-21.4c1.4-15.5-5.9-24.2-21.6-25.6l-2.3-0.2L734.3,1277.6z"/>
	<path d="M886,1282.7l-13.7,2.6l-13.4-70.2l13.7-2.6L886,1282.7z"/>
	<path d="M950.8,1187l8.9-4.7l56.5,26.8l0.2-0.1l-22.2-42.6l12.3-6.4l33.7,64.6l-8.9,4.7l-56.5-26.8l-0.2,0.1l22.5,43l-12.3,6.4
		L950.8,1187z"/>
	<path d="M1089.3,1108.2l11.2,11l15.5-15.8l8.7,8.5l-15.5,15.8l13.8,13.5l16.1-16.5l8.7,8.5l-25.8,26.4l-51.1-50l25.8-26.4l8.7,8.5
		L1089.3,1108.2z"/>
</g>
<g>
	<path fill="#B0AEA1" stroke="#000000" stroke-width="13.4927" stroke-miterlimit="10" d="M877,904.8l55.2-225.3l-9.5-20.9
		c0,0,19.7,55.6,86,55.6s69.8-56.8,69.8-56.8H785.4H785H491.9c0,0,3.6,56.8,69.8,56.8s86-55.6,86-55.6l-12.2,20.9l55.2,225.3"/>
	<path fill="#FFFFFF" stroke="#000000" stroke-width="16.1912" stroke-miterlimit="10" d="M889.5,942.7c0,31.4-42.4,47.3-106.5,47.3
		s-104.1-16-104.1-47.3c0-51.6,40.1-56.8,104.1-56.8S889.5,881.6,889.5,942.7z"/>
	<line fill="none" stroke="#000000" stroke-width="16.1912" stroke-miterlimit="10" x1="635.5" y1="679.5" x2="690.7" y2="904.8"/>
	<ellipse cx="731.4" cy="927.3" rx="12.3" ry="9.1"/>
	<ellipse cx="839" cy="927.3" rx="12.3" ry="9.1"/>
	<path fill="none" stroke="#000000" stroke-width="16.1912" stroke-miterlimit="10" d="M695.5,757.2c0,0,26,30,58.4,0"/>
	<path fill="none" stroke="#000000" stroke-width="16.1912" stroke-miterlimit="10" d="M814.7,757.2c0,0,26,30,58.4,0"/>
	<path stroke="#000000" stroke-width="16.1912" stroke-miterlimit="10" d="M680.8,564c0.1-0.7,0-1.4-2.9-0.2
		c-8.5,3.7-27.3,16.4-27.3,44.6c0,37.6,19.7,47.8,19.7,47.8h20.7c0,0-33.3-18.7-29.9-50.9C664.6,573.2,679.7,572.8,680.8,564z"/>
	<path stroke="#000000" stroke-width="16.1912" stroke-miterlimit="10" d="M886.4,564c-0.1-0.7,0-1.4,2.9-0.2
		c8.5,3.7,27.3,16.4,27.3,44.6c0,37.6-19.7,47.8-19.7,47.8h-20.7c0,0,33.3-18.7,29.9-50.9C902.6,573.2,887.6,572.8,886.4,564z"/>
	<path fill="#FFFFFF" stroke="#000000" stroke-width="16.1912" stroke-miterlimit="10" d="M843.3,985.3c0,21.1-16.8,29.5-59.9,29.5
		s-60.7-8.4-60.7-29.5H843.3z"/>
</g>
<circle fill="none" stroke="#000000" stroke-width="24.2868" stroke-miterlimit="10" cx="783.9" cy="792" r="581.5"/>
</svg>
