<?xml version="1.0" encoding="utf-8"?>
<!-- Generator: Adobe Illustrator 18.1.1, SVG Export Plug-In . SVG Version: 6.00 Build 0)  -->
<!DOCTYPE svg PUBLIC "-//W3C//DTD SVG 1.1//EN" "http://www.w3.org/Graphics/SVG/1.1/DTD/svg11.dtd">
<svg version="1.1" id="Layer_1" xmlns="http://www.w3.org/2000/svg" xmlns:xlink="http://www.w3.org/1999/xlink" x="0px" y="0px"
	 viewBox="0 0 1630.6 1584" enable-background="new 0 0 1630.6 1584" xml:space="preserve">
<path fill="none" stroke="#000000" stroke-width="10.7941" stroke-miterlimit="10" d="M415.6,1096.1
	c-75-85.4-120.5-197.3-120.5-319.9c0-267.7,217-484.8,484.8-484.8s484.8,217,484.8,484.8c0,116.1-40.8,222.6-108.8,306.1"/>
<path id="SVGID_x5F_1_x5F_" fill="none" d="M1272.7,807.8c0-267.7-217-484.8-484.8-484.8s-484.8,217-484.8,484.8
	s217,484.8,484.8,484.8S1272.7,1075.5,1272.7,807.8z"/>
<text><textPath  xlink:href="#SVGID_x5F_1_x5F_" startOffset="82.361%">
<tspan  font-family="'FuturaStd-Heavy'" font-size="94.7457" letter-spacing="860">NADINE</tspan></textPath>
</text>
<g>
	<path fill="#B0AEA1" stroke="#000000" stroke-width="13.4927" stroke-miterlimit="10" d="M877,904.8l55.2-225.3l-9.5-20.9
		c0,0,19.7,55.6,86,55.6s69.8-56.8,69.8-56.8H785.4H785H491.9c0,0,3.6,56.8,69.8,56.8s86-55.6,86-55.6l-12.2,20.9l55.2,225.3"/>
	<path fill="#FFFFFF" stroke="#000000" stroke-width="16.1912" stroke-miterlimit="10" d="M889.5,942.7c0,31.4-42.4,47.3-106.5,47.3
		s-104.1-16-104.1-47.3c0-51.6,40.1-56.8,104.1-56.8S889.5,881.6,889.5,942.7z"/>
	<line fill="none" stroke="#000000" stroke-width="16.1912" stroke-miterlimit="10" x1="635.5" y1="679.5" x2="690.7" y2="904.8"/>
	<ellipse cx="731.4" cy="927.3" rx="12.3" ry="9.1"/>
	<ellipse cx="839" cy="927.3" rx="12.3" ry="9.1"/>
	<path fill="none" stroke="#000000" stroke-width="16.1912" stroke-miterlimit="10" d="M695.5,757.2c0,0,26,30,58.4,0"/>
	<path fill="none" stroke="#000000" stroke-width="16.1912" stroke-miterlimit="10" d="M814.7,757.2c0,0,26,30,58.4,0"/>
	<path stroke="#000000" stroke-width="16.1912" stroke-miterlimit="10" d="M680.8,564c0.1-0.7,0-1.4-2.9-0.2
		c-8.5,3.7-27.3,16.4-27.3,44.6c0,37.6,19.7,47.8,19.7,47.8h20.7c0,0-33.3-18.7-29.9-50.9C664.6,573.2,679.7,572.8,680.8,564z"/>
	<path stroke="#000000" stroke-width="16.1912" stroke-miterlimit="10" d="M886.4,564c-0.1-0.7,0-1.4,2.9-0.2
		c8.5,3.7,27.3,16.4,27.3,44.6c0,37.6-19.7,47.8-19.7,47.8h-20.7c0,0,33.3-18.7,29.9-50.9C902.6,573.2,887.6,572.8,886.4,564z"/>
	<path fill="#FFFFFF" stroke="#000000" stroke-width="16.1912" stroke-miterlimit="10" d="M843.3,985.3c0,21.1-16.8,29.5-59.9,29.5
		s-60.7-8.4-60.7-29.5H843.3z"/>
</g>
<circle fill="none" stroke="#000000" stroke-width="24.2868" stroke-miterlimit="10" cx="783.9" cy="792" r="581.5"/>
</svg>
