<?xml version="1.0" encoding="utf-8"?>
<!-- Generator: Adobe Illustrator 18.1.1, SVG Export Plug-In . SVG Version: 6.00 Build 0)  -->
<!DOCTYPE svg PUBLIC "-//W3C//DTD SVG 1.1//EN" "http://www.w3.org/Graphics/SVG/1.1/DTD/svg11.dtd">
<svg version="1.1" id="Layer_1" xmlns="http://www.w3.org/2000/svg" xmlns:xlink="http://www.w3.org/1999/xlink" x="0px" y="0px"
	 viewBox="-306 -198 1530 990" enable-background="new -306 -198 1530 990" xml:space="preserve">
<g>
	<path fill="#B0AEA1" d="M964.2,502.1l1.6,78.8v187.3l-73.9-0.4c0,0,0.4-88.2,2.3-134.1c0.4-8.8-13.3-30.8-13.3-30.8l-23.5-30.6
		l77-48.4L964.2,502.1z"/>
	<path fill="none" stroke="#000000" stroke-width="12.5191" stroke-miterlimit="10" d="M970.5,552.1v26v187.3l-73.9-0.4
		c0,0,0.1-84.2,2.3-134.1c0.4-8.8-25.3-32.8-25.3-32.8"/>
	<polygon points="900.6,729.9 969,730.3 971.3,765.6 897.4,765.2 	"/>
	<polygon fill="#B0AEA1" points="250,650.7 244.1,751.5 178.5,751.5 193,421.6 190.3,383.6 269.7,415 267.3,467.7 	"/>
	<polyline fill="none" stroke="#000000" stroke-width="12.5191" stroke-miterlimit="10" points="185.9,445.8 178.5,757.3 
		244.1,757.3 	"/>
	<polygon points="179.6,760.2 248.1,757.4 244.1,727.4 179.3,727.4 	"/>
	<g>
		<path fill="#FFFFFF" d="M857.4,566.1c-5.2,2.7-10.9,5.4-16.9,8.2"/>
		<path fill="#FFFFFF" d="M735.7,561.8c0,0-27.5,32.3-14.5,42.4s30.3-33.2,30.3-33.2"/>
		<path fill="#FFFFFF" d="M784.4,586.7c0,0-5.5,39.1,11,40.5c16.4,1.5,7.4-41.6,7.4-41.6"/>
		<path fill="#FFFFFF" d="M856.2,564.5c0,0,0.4,0.5,1.2,1.6"/>
		<path fill="#FFFFFF" d="M857.4,566.1c5.2,7.2,25.1,36.3,11.7,41.4c-14.1,5.5-26.5-27.6-28.7-33.4"/>
		<path fill="#FFFFFF" d="M840.1,573.3c0,0,0.1,0.3,0.3,0.8"/>
	</g>
	<path fill="#B0AEA1" d="M277.6-6.1l744.6,5.9c0,0,29-7.5,26.9,34.6c-1.9,42.1-9.7,294.4,0,306l-3.9,440.2l-89.6,0.9l-1.6-200.3
		c0,0,7.8-8.2-48-31.5c-67.8-28.4-82.6-78.2-95.6-78.8c-17.7-0.9-126.6,9.1-468.4,6.8l-11.3,297.1l-93.6,5.8l-4.4-306.9
		c0,0-106.1-43.2-138.2-87c-23.6-32.2-55-125.2-55-174c0-54.2,115.6-216.8,115.6-216.8L277.6-6.1z"/>
	<path fill="none" d="M1056.8,12.8c0,0,125.4-93.3,65.8,269.8c0,0-10.3,57.8,0,132.9c0,0-52.7,73.2,0,123.3"/>
	<path fill="none" d="M1173.5,494.4c0-90.5-45.6-79-45.6-79s22.7,21.2,13.9,80.8"/>
	<path fill="none" stroke="#000000" stroke-width="12.5191" stroke-miterlimit="10" d="M181.7-6.1l840.5,2.9c0,0,29.8-2.9,26.9,34.6
		c-3.1,42-3.9,749.1-3.9,749.1l-89.6,0.9l-1.6-145.5c0,0-10.3-58.9-76.3-105.8c-107.7-76.7-118.5-144.9-126.3-199"/>
	<path fill="none" stroke="#000000" stroke-width="12.5191" stroke-miterlimit="10" d="M816.7,476.9l-474.6,0.5l-11.3,300.1h-93.6
		l-4.4-304.1c0,0-81.5-31.5-118-68.1c-32.3-32.6-63.7-96-63.7-151.5"/>
	<path fill="none" stroke="#000000" stroke-width="12.5191" stroke-miterlimit="10" d="M671.8,473c0.8,4.7,31.2,91.3,109.8,100.3
		c81,9.3,116.9-37.5,114.5-29.4"/>
	<path fill="none" stroke="#000000" stroke-width="12.5191" stroke-miterlimit="10" d="M735.7,556c0,0-27.5,32.3-14.5,42.4
		s30.3-33.2,30.3-33.2"/>
	<path fill="none" stroke="#000000" stroke-width="12.5191" stroke-miterlimit="10" d="M784.4,578c0,0-5.5,42,11,43.4
		c16.5,1.5,7.4-44.4,7.4-44.4"/>
	<path fill="none" stroke="#000000" stroke-width="12.5191" stroke-miterlimit="10" d="M840.1,573.3c0,0,13.5,40.1,29,34.2
		c15.4-5.9-12.9-43.2-12.9-43.2"/>
	<path fill="none" stroke="#000000" stroke-width="12.5191" stroke-miterlimit="10" d="M1048.2,9.8c0,0,134.1-93.3,74.5,269.8
		c0,0-10.3,57.8,0,132.9c0,0-52.7,73.2,0,123.3"/>
	<path fill="none" stroke="#000000" stroke-width="12.5191" stroke-miterlimit="10" d="M1173.5,491.5c0-90.5-45.6-79-45.6-79
		s22.7,21.2,13.9,80.8"/>
	<polygon points="1046.5,780.5 954,781.4 958.3,743.6 1047.6,741.8 	"/>
	<polygon points="238.3,777.5 336.6,778.2 334.6,741.4 236.7,741.8 	"/>
	<path d="M799.4,624.4"/>
	<path fill="#B0AEA1" stroke="#000000" stroke-width="11.5561" stroke-miterlimit="10" d="M143.8,146.4l53.9-219.7l-9.3-20.4
		c0,0,19.2,54.3,83.9,54.3s68.1-55.4,68.1-55.4h-286h-0.4h-286c0,0,3.5,55.4,68.1,55.4s83.9-54.3,83.9-54.3l-11.9,20.4l53.9,219.7"
		/>
	<path fill="#FFFFFF" stroke="#000000" stroke-width="11.5561" stroke-miterlimit="10" d="M155.8,183.3c0,30.6-41.4,46.1-103.8,46.1
		s-101.5-15.6-101.5-46.1c0-50.3,39-55.4,101.5-55.4S155.8,123.8,155.8,183.3z"/>
	<line fill="none" stroke="#000000" stroke-width="11.5561" stroke-miterlimit="10" x1="-91.8" y1="-73.3" x2="-37.9" y2="146.4"/>
	<ellipse cx="1.8" cy="168.4" rx="12.1" ry="8.8"/>
	<ellipse cx="106.6" cy="168.4" rx="12.1" ry="8.8"/>
	<path fill="none" stroke="#000000" stroke-width="11.5561" stroke-miterlimit="10" d="M-33.3,2.6c0,0,25.3,29.2,57,0"/>
	<path fill="none" stroke="#000000" stroke-width="11.5561" stroke-miterlimit="10" d="M83,2.6c0,0,25.3,29.2,57,0"/>
	<path stroke="#000000" stroke-width="11.5561" stroke-miterlimit="10" d="M-47.5-185.8c0.1-0.7,0-1.3-2.8-0.1
		c-8.3,3.6-26.5,16-26.5,43.4c0,36.7,19.3,46.7,19.3,46.7h20.1c0,0-32.4-18.2-29.2-49.6C-63.5-176.8-48.8-177.3-47.5-185.8z"/>
	<path stroke="#000000" stroke-width="11.5561" stroke-miterlimit="10" d="M152.9-185.8c-0.1-0.7,0-1.3,2.8-0.1
		c8.3,3.6,26.5,16,26.5,43.4c0,36.7-19.3,46.7-19.3,46.7h-20.1c0,0,32.4-18.2,29.2-49.6C168.8-176.8,154-177.3,152.9-185.8z"/>
	<path fill="#FFFFFF" stroke="#000000" stroke-width="11.5561" stroke-miterlimit="10" d="M110.9,224.9c0,20.6-16.4,28.8-58.5,28.8
		s-59.1-8.2-59.1-28.8H110.9z"/>
</g>
</svg>
