<?xml version="1.0" encoding="utf-8"?>
<!-- Generator: Adobe Illustrator 18.1.1, SVG Export Plug-In . SVG Version: 6.00 Build 0)  -->
<!DOCTYPE svg PUBLIC "-//W3C//DTD SVG 1.1//EN" "http://www.w3.org/Graphics/SVG/1.1/DTD/svg11.dtd">
<svg version="1.1" xmlns="http://www.w3.org/2000/svg" xmlns:xlink="http://www.w3.org/1999/xlink" x="0px" y="0px"
	 viewBox="0 0 187.5 131.5" enable-background="new 0 0 187.5 131.5" xml:space="preserve">
<g id="Layer_1">
	<path fill="#FFFFFF" stroke="#000000" stroke-width="1.5" stroke-miterlimit="10" d="M124.5,62.5H28.2c-0.4,0-0.7-0.3-0.7-0.7V3.1
		c0-0.4,0.3-0.7,0.7-0.7h96.3c0.4,0,0.7,0.3,0.7,0.7v58.7C125.2,62.2,124.9,62.5,124.5,62.5z"/>
	<polyline fill="none" stroke="#000000" stroke-width="1.5" stroke-miterlimit="10" points="117.4,12.5 109.4,22.9 107,21 
		89.6,42.3 77,29.7 72.1,34.9 57.2,21 49.5,29.6 44.8,25.8 33,42.3 	"/>
	<g>
		<path fill="#FFFFFF" stroke="#000000" stroke-width="1.5" stroke-miterlimit="10" d="M123.3,83.9c0.6,1.6,11.5,18.9,11.5,18.9
			s0.6,2.4,3.2,1.5s1.7-3.3,1.7-3.3l-11.5-18.9L123.3,83.9z"/>
		<path stroke="#000000" stroke-width="1.5" stroke-miterlimit="10" d="M133.5,59.2c0,7.8-5.8,14.2-14.2,14.2s-14.2-6.4-14.2-14.2
			s5.8-13.2,14.2-13.2S133.5,51.3,133.5,59.2z"/>
		<path fill="#FFFFFF" stroke="#000000" stroke-width="1.5" stroke-miterlimit="10" d="M112.6,86.8C111.3,85.7,98,73,98,73
			s-1.6-1.9-3.5,0.1c-1.9,2-0.1,3.7-0.1,3.7L109,90.6L112.6,86.8z"/>
		<path fill="#FFFFFF" stroke="#000000" stroke-width="1.5" stroke-miterlimit="10" d="M111.5,107.8c0,1.7-0.1,20.1-0.1,20.1
			s-0.3,2.5,3.2,2.5c3.5,0,3.5-2.5,3.5-2.5l0.1-20.1L111.5,107.8z"/>
		<path fill="#FFFFFF" stroke="#000000" stroke-width="1.5" stroke-miterlimit="10" d="M122.3,107.9c0,1.7-0.1,20.1-0.1,20.1
			s-0.3,2.5,3.2,2.5c3.5,0,3.5-2.5,3.5-2.5l0.1-20.1L122.3,107.9z"/>
		<path fill="#B0AEA1" stroke="#000000" stroke-width="1.5" stroke-miterlimit="10" d="M119.4,74.5c13.7,0,15.7,38.3,15.7,38.3
			h-29.7C105.4,112.8,105.7,74.5,119.4,74.5z"/>
		<path stroke="#000000" stroke-width="1.5" stroke-miterlimit="10" d="M114.9,75.7l-1.4,4.1l5.9-3.2l5.8,3.2l-1.6-4.4
			c0,0-3.3-1.1-4.4-1.1C118.1,74.2,114.9,75.7,114.9,75.7z"/>
		<path stroke="#000000" stroke-width="1.5" stroke-miterlimit="10" d="M106,59.5c0,0-3.5,15.4,0.4,19.3c3.2,3.2,22.5,2.8,25.9,0.4
			c1.9-1.4,2.8-4.5,0.5-19.1L106,59.5z"/>
	</g>
</g>
<g id="Layer_2">
</g>
</svg>
