<?xml version="1.0" encoding="utf-8"?>
<!-- Generator: Adobe Illustrator 18.1.1, SVG Export Plug-In . SVG Version: 6.00 Build 0)  -->
<!DOCTYPE svg PUBLIC "-//W3C//DTD SVG 1.1//EN" "http://www.w3.org/Graphics/SVG/1.1/DTD/svg11.dtd">
<svg version="1.1" id="Layer_1" xmlns="http://www.w3.org/2000/svg" xmlns:xlink="http://www.w3.org/1999/xlink" x="0px" y="0px"
	 viewBox="0 0 427 306" enable-background="new 0 0 427 306" xml:space="preserve">
<path fill="#FFFFFF" stroke="#000000" stroke-width="3.7158" stroke-miterlimit="10" d="M308.5,139.6H95c-0.2,0-0.3-0.1-0.3-0.3V8.2
	c0-0.2,0.1-0.3,0.3-0.3h213.5c0.2,0,0.3,0.1,0.3,0.3v131.1C308.8,139.5,308.6,139.6,308.5,139.6z"/>
<polyline fill="none" stroke="#214BA0" stroke-width="2.6771" stroke-miterlimit="10" points="291.6,29.9 274.2,52.9 268.9,48.7 
	230.8,95.4 203.1,67.6 192.4,79.1 159.8,48.7 143,67.5 132.6,59.2 106.8,95.4 "/>
<g>
	<path fill="#FFFFFF" stroke="#000000" stroke-width="3.7158" stroke-miterlimit="10" d="M304.7,180.7c1.3,3.5,25.2,41.4,25.2,41.4
		s1.4,5.3,7,3.2c5.6-2.1,3.7-7.2,3.7-7.2l-25.2-41.4L304.7,180.7z"/>
	<path d="M326.8,126.5c0,17.2-12.6,31.1-31.1,31.1s-31.1-13.9-31.1-31.1s12.6-28.9,31.1-28.9S326.8,109.3,326.8,126.5z"/>
	<path fill="#FFFFFF" stroke="#000000" stroke-width="3.7158" stroke-miterlimit="10" d="M281.1,187.2c-2.7-2.5-32-30.4-32-30.4
		s-3.6-4.2-7.7,0.2c-4.1,4.4-0.2,8.1-0.2,8.1l32,30.4L281.1,187.2z"/>
	<path fill="#FFFFFF" stroke="#000000" stroke-width="3.7158" stroke-miterlimit="10" d="M278.7,233.2c0,3.7-0.3,44.1-0.3,44.1
		s-0.7,5.5,6.9,5.5c7.7,0,7.7-5.4,7.7-5.4l0.3-44.1L278.7,233.2z"/>
	<path fill="#FFFFFF" stroke="#000000" stroke-width="3.7158" stroke-miterlimit="10" d="M302.4,233.2c0,3.7-0.3,44.1-0.3,44.1
		s-0.7,5.5,6.9,5.5c7.7,0,7.7-5.4,7.7-5.4l0.3-44.1L302.4,233.2z"/>
	<path fill="#B0AEA1" stroke="#000000" stroke-width="3.7158" stroke-miterlimit="10" d="M296.1,160.1c29.9,0,34.3,83.8,34.3,83.8
		h-65C265.4,243.9,266.1,160.1,296.1,160.1z"/>
	<path d="M286.3,162.8l-3.1,8.9l12.9-7l12.7,7l-3.4-9.7c0,0-7.2-2.5-9.7-2.5C293.2,159.5,286.3,162.8,286.3,162.8z"/>
	<path stroke="#000000" stroke-width="3.7158" stroke-miterlimit="10" d="M266.7,127.4c0,0-7.6,33.8,0.8,42.3c7,7,49.3,6.2,56.8,0.9
		c4.2-3,6-9.8,1.1-41.9L266.7,127.4z"/>
</g>
</svg>
