<?xml version="1.0" encoding="utf-8"?>
<!-- Generator: Adobe Illustrator 18.1.1, SVG Export Plug-In . SVG Version: 6.00 Build 0)  -->
<!DOCTYPE svg PUBLIC "-//W3C//DTD SVG 1.1//EN" "http://www.w3.org/Graphics/SVG/1.1/DTD/svg11.dtd">
<svg version="1.1" xmlns="http://www.w3.org/2000/svg" xmlns:xlink="http://www.w3.org/1999/xlink" x="0px" y="0px"
	 viewBox="0 0 187.5 131.5" enable-background="new 0 0 187.5 131.5" xml:space="preserve">
<g id="Layer_1">
	<path fill="#FFFFFF" stroke="#000000" stroke-width="1.5" stroke-miterlimit="10" d="M105.1,63.3H53.3c-0.4,0-0.7-0.3-0.7-0.7V2.4
		c0-0.4,0.3-0.7,0.7-0.7h51.8c0.4,0,0.7,0.3,0.7,0.7v60.2C105.8,63,105.5,63.3,105.1,63.3z"/>
	<path fill="#FFFFFF" stroke="#000000" stroke-width="1.5" stroke-linecap="round" stroke-miterlimit="10" d="M67.5,18.3h-7
		c-0.4,0-0.7-0.3-0.7-0.7v-6.1c0-0.4,0.3-0.7,0.7-0.7h7c0.4,0,0.7,0.3,0.7,0.7v6.1C68.2,18,67.9,18.3,67.5,18.3z"/>
	<path fill="#FFFFFF" stroke="#000000" stroke-width="1.5" stroke-linecap="round" stroke-miterlimit="10" d="M67.5,30.3h-7
		c-0.4,0-0.7-0.3-0.7-0.7v-6.1c0-0.4,0.3-0.7,0.7-0.7h7c0.4,0,0.7,0.3,0.7,0.7v6.1C68.2,29.9,67.9,30.3,67.5,30.3z"/>
	<path fill="#FFFFFF" stroke="#000000" stroke-width="1.5" stroke-linecap="round" stroke-miterlimit="10" d="M67.5,42.2h-7
		c-0.4,0-0.7-0.3-0.7-0.7v-6.1c0-0.4,0.3-0.7,0.7-0.7h7c0.4,0,0.7,0.3,0.7,0.7v6.1C68.2,41.9,67.9,42.2,67.5,42.2z"/>
	<polyline fill="none" stroke="#214BA0" stroke-width="1.5" stroke-linecap="round" stroke-miterlimit="10" points="61.5,12.5 
		64.4,15.5 72.8,6 	"/>
	<polyline fill="none" stroke="#214BA0" stroke-width="1.5" stroke-linecap="round" stroke-miterlimit="10" points="61.5,24.8 
		64.4,27.7 72.8,18.3 	"/>
	<polyline fill="none" stroke="#214BA0" stroke-width="1.5" stroke-linecap="round" stroke-miterlimit="10" points="61.5,36.6 
		64.4,39.5 72.8,30.1 	"/>
	
		<line fill="none" stroke="#000000" stroke-width="1.5" stroke-linecap="round" stroke-miterlimit="10" x1="76.8" y1="13.4" x2="96.2" y2="13.4"/>
	
		<line fill="none" stroke="#000000" stroke-width="1.5" stroke-linecap="round" stroke-miterlimit="10" x1="76.8" y1="25.6" x2="96.2" y2="25.6"/>
	
		<line fill="none" stroke="#000000" stroke-width="1.5" stroke-linecap="round" stroke-miterlimit="10" x1="76.8" y1="37.9" x2="96.2" y2="37.9"/>
	<g>
		<path fill="#FFFFFF" stroke="#000000" stroke-width="1.5" stroke-miterlimit="10" d="M92.1,94.6c0.6,1.3,0.4,1.7,0.4,1.7
			s0,3.6-2.8,3.6c-2.8,0-2.8-2.5-2.8-2.5l0.7-3.4L92.1,94.6z"/>
		<g>
			<path fill="#FFFFFF" stroke="#000000" stroke-width="1.5" stroke-miterlimit="10" d="M112.2,95.1c0,1.7,0,2.3,0,2.3
				s-0.3,2.5,2.5,2.5c2.8,0,2.8-2.5,2.8-2.5l-0.7-3.4L112.2,95.1z"/>
			<path fill="#B0AEA1" stroke="#000000" stroke-width="1.5" stroke-miterlimit="10" d="M92,80.7L92,95.5h19.5c0,0,0.4-4.2,0.5-11.3
				l0-3.6l2.8,5.5l-2.9,9.9l5.1-1l3.1-9.1L113.3,74l-7.2-0.4c-1.1-0.4-2.5-0.7-4-0.7h-0.4c-1.6,0-2.9,0.2-4,0.7L90.4,74l-7.6,11.4
				l3.5,9.5l5.1,1l-3-10l3.6-6.1L92,80.7z"/>
			<path fill="#FFFFFF" stroke="#000000" stroke-width="1.5" stroke-miterlimit="10" d="M115.6,57.5c0,7.9-5.4,14.3-13.3,14.3
				s-13.3-6.4-13.3-14.3s5.4-13.3,13.3-13.3S115.6,49.6,115.6,57.5z"/>
			<path fill="none" stroke="#000000" stroke-width="1.5" stroke-miterlimit="10" d="M95.7,62.5c0,0,1.1,4,6.3,4c5.2,0,6.3-4,6.3-4"
				/>
			<path fill="#FFFFFF" stroke="#000000" stroke-width="1.5" stroke-miterlimit="10" d="M94,107.6c0,1.7-3.5,19.8-3.5,19.8
				s-0.3,2.5,3.2,2.5c3.5,0,3.6-2.5,3.6-2.5l3.5-19.8L94,107.6z"/>
			<path fill="#FFFFFF" stroke="#000000" stroke-width="1.5" stroke-miterlimit="10" d="M102,107.6c0,1.7,3.3,19.8,3.3,19.8
				s-0.3,2.5,3.2,2.5c3.5,0,3.6-2.5,3.6-2.5l-3.3-19.8L102,107.6z"/>
			<path d="M97.5,73L96.1,77l6-3.2l5.9,3.2l-1.6-4c0,0-3.3-1.1-4.5-1.1C100.7,71.9,97.5,73,97.5,73z"/>
			<path fill="#EFEFE7" stroke="#000000" stroke-width="1.5" stroke-miterlimit="10" d="M106,55.9c0,0,2.5,2.5,4.5,0"/>
			<path fill="none" stroke="#000000" stroke-width="1.5" stroke-miterlimit="10" d="M94.6,55.9c0,0,2.5,2.5,4.5,0"/>
			<polygon points="92.8,95.5 111,95.5 112.3,125.2 105.4,125.2 102.2,107.6 100.6,107.6 97.4,125.2 90.5,125.2 			"/>
			<path fill="none" stroke="#000000" stroke-width="1.5" stroke-miterlimit="10" d="M104.4,44.5c0,0,10,4.5,11.6-4"/>
			<path fill="none" stroke="#000000" stroke-width="1.5" stroke-miterlimit="10" d="M104.2,44.2c2.7,0.9,9.4,1.5,9.1-5.4"/>
			<path fill="none" stroke="#000000" stroke-width="1.5" stroke-miterlimit="10" d="M104.4,44.5c0,0,8.4,0,5.2-8"/>
			<polygon points="102.1,74.2 100.7,75.3 99.8,84.7 102.1,87 104.2,84.8 103.5,75.3 			"/>
		</g>
	</g>
</g>
<g id="Layer_2">
</g>
</svg>
