<?xml version="1.0" encoding="utf-8"?>
<!-- Generator: Adobe Illustrator 18.1.1, SVG Export Plug-In . SVG Version: 6.00 Build 0)  -->
<!DOCTYPE svg PUBLIC "-//W3C//DTD SVG 1.1//EN" "http://www.w3.org/Graphics/SVG/1.1/DTD/svg11.dtd">
<svg version="1.1" id="Layer_1" xmlns="http://www.w3.org/2000/svg" xmlns:xlink="http://www.w3.org/1999/xlink" x="0px" y="0px"
	 viewBox="0 0 441 310" enable-background="new 0 0 441 310" xml:space="preserve">
<path fill="#FFFFFF" stroke="#000000" stroke-width="3.1381" stroke-miterlimit="10" d="M257.1,146.5H139.5c-0.2,0-0.3-0.1-0.3-0.3
	V10c0-0.2,0.1-0.3,0.3-0.3h117.6c0.2,0,0.3,0.1,0.3,0.3v136.2C257.4,146.3,257.3,146.5,257.1,146.5z"/>
<path fill="#FFFFFF" stroke="#000000" stroke-width="3.1381" stroke-linecap="round" stroke-miterlimit="10" d="M173.5,46.5h-17.9
	c-0.2,0-0.3-0.1-0.3-0.3V30.1c0-0.2,0.1-0.3,0.3-0.3h17.9c0.2,0,0.3,0.1,0.3,0.3v16.1C173.9,46.4,173.7,46.5,173.5,46.5z"/>
<path fill="#FFFFFF" stroke="#000000" stroke-width="3.1381" stroke-linecap="round" stroke-miterlimit="10" d="M173.5,73.1h-17.9
	c-0.2,0-0.3-0.1-0.3-0.3V56.6c0-0.2,0.1-0.3,0.3-0.3h17.9c0.2,0,0.3,0.1,0.3,0.3v16.1C173.9,72.9,173.7,73.1,173.5,73.1z"/>
<path fill="#FFFFFF" stroke="#000000" stroke-width="3.1381" stroke-linecap="round" stroke-miterlimit="10" d="M173.5,99.6h-17.9
	c-0.2,0-0.3-0.1-0.3-0.3V83.2c0-0.2,0.1-0.3,0.3-0.3h17.9c0.2,0,0.3,0.1,0.3,0.3v16.1C173.9,99.4,173.7,99.6,173.5,99.6z"/>
<polyline fill="none" stroke="#214BA0" stroke-width="3.1381" stroke-linecap="round" stroke-miterlimit="10" points="159,33.7 
	165.5,40.2 184.1,19.3 "/>
<polyline fill="none" stroke="#214BA0" stroke-width="3.1381" stroke-linecap="round" stroke-miterlimit="10" points="159,60.8 
	165.5,67.4 184.1,46.4 "/>
<polyline fill="none" stroke="#214BA0" stroke-width="3.1381" stroke-linecap="round" stroke-miterlimit="10" points="159,87 
	165.5,93.5 184.1,72.6 "/>
<line fill="none" stroke="#000000" stroke-width="3.1381" stroke-linecap="round" stroke-miterlimit="10" x1="193" y1="35.7" x2="236" y2="35.7"/>
<line fill="none" stroke="#000000" stroke-width="3.1381" stroke-linecap="round" stroke-miterlimit="10" x1="193" y1="62.8" x2="236" y2="62.8"/>
<line fill="none" stroke="#000000" stroke-width="3.1381" stroke-linecap="round" stroke-miterlimit="10" x1="193" y1="90" x2="236" y2="90"/>
<g>
	<path fill="#FFFFFF" stroke="#000000" stroke-width="3.7646" stroke-miterlimit="10" d="M227,215.9c1.2,3,0.9,3.7,0.9,3.7
		s0,8-6.2,8c-6.1,0-6.1-5.6-6.1-5.6l1.6-7.5L227,215.9z"/>
	<g>
		<path fill="#FFFFFF" stroke="#000000" stroke-width="3.7646" stroke-miterlimit="10" d="M271.6,216.9c0,3.8,0,5.1,0,5.1
			s-0.6,5.6,5.6,5.6c6.2,0,6.1-5.6,6.1-5.6l-1.6-7.5L271.6,216.9z"/>
		<path fill="#B0AEA1" stroke="#000000" stroke-width="3.7646" stroke-miterlimit="10" d="M226.8,184.9l-0.1,32.8H270
			c0,0,0.8-9.4,1.1-25.1l0-8l6.2,12.3l-6.5,22l11.3-2.3l6.9-20.2l-14.8-26.2l-16.1-0.9c-2.6-0.9-5.5-1.5-9-1.5h-0.9
			c-3.5,0-6.4,0.5-9,1.5l-16.1,0.9l-16.8,25.3l7.7,21.2l11.3,2.3l-6.5-22.3l8-13.6L226.8,184.9z"/>
		<path fill="#FFFFFF" stroke="#000000" stroke-width="3.7646" stroke-miterlimit="10" d="M279.1,133.5c0,17.6-12,31.8-29.6,31.8
			s-29.6-14.2-29.6-31.8s12-29.6,29.6-29.6S279.1,115.9,279.1,133.5z"/>
		<path fill="none" stroke="#000000" stroke-width="3.7646" stroke-miterlimit="10" d="M234.9,144.6c0,0,2.4,8.9,13.9,8.9
			c11.5,0,13.9-8.9,13.9-8.9"/>
		<path fill="#FFFFFF" stroke="#000000" stroke-width="3.7646" stroke-miterlimit="10" d="M231.2,244.7c0,3.8-7.8,44-7.8,44
			s-0.8,5.6,7.1,5.6c7.9,0,7.9-5.6,7.9-5.6l7.8-44L231.2,244.7z"/>
		<path fill="#FFFFFF" stroke="#000000" stroke-width="3.7646" stroke-miterlimit="10" d="M249,244.7c0,3.8,7.3,44,7.3,44
			s-0.8,5.6,7.1,5.6c7.9,0,7.9-5.6,7.9-5.6l-7.3-44L249,244.7z"/>
		<path d="M239.1,167.8l-3.2,9.1l13.2-7.1l13,7.1l-3.5-8.8c0,0-7.4-2.5-9.9-2.5C246.1,165.6,239.1,167.8,239.1,167.8z"/>
		<path fill="#EFEFE7" stroke="#000000" stroke-width="3.7646" stroke-miterlimit="10" d="M257.9,129.9c0,0,5.6,5.6,10.1,0"/>
		<path fill="none" stroke="#000000" stroke-width="3.7646" stroke-miterlimit="10" d="M232.5,129.9c0,0,5.6,5.6,10.1,0"/>
		<polygon points="226.6,217.8 270,217.8 273,283.6 256.6,283.6 249.1,244.7 245.1,244.7 237.6,283.6 221.2,283.6 		"/>
		<path fill="none" stroke="#000000" stroke-width="3.7646" stroke-miterlimit="10" d="M254.4,104.7c0,0,22.1,10,25.7-8.8"/>
		<path fill="none" stroke="#000000" stroke-width="3.7646" stroke-miterlimit="10" d="M253.7,104c5.9,2,20.9,3.3,20.1-12.1"/>
		<path fill="none" stroke="#000000" stroke-width="3.7646" stroke-miterlimit="10" d="M254.4,104.7c0,0,18.7,0.1,11.4-17.7"/>
		<polygon points="249.1,170.6 246,173.1 244,193.7 249.1,199.1 253.8,194 252.2,173.1 		"/>
	</g>
</g>
</svg>
