<?xml version="1.0" encoding="utf-8"?>
<!-- Generator: Adobe Illustrator 18.1.1, SVG Export Plug-In . SVG Version: 6.00 Build 0)  -->
<!DOCTYPE svg PUBLIC "-//W3C//DTD SVG 1.1//EN" "http://www.w3.org/Graphics/SVG/1.1/DTD/svg11.dtd">
<svg version="1.1" id="Layer_1" xmlns="http://www.w3.org/2000/svg" xmlns:xlink="http://www.w3.org/1999/xlink" x="0px" y="0px"
	 viewBox="0 0 524 392" enable-background="new 0 0 524 392" xml:space="preserve">
<path fill="#B0AEA1" d="M423,264.7l0.6,27.3l0,64.8l-25.6-0.1c0,0,0.1-30.5,0.8-46.4c0.1-3.1-4.6-10.7-4.6-10.7l-8.1-10.6l26.7-16.7
	L423,264.7z"/>
<path fill="none" stroke="#000000" stroke-width="3.25" stroke-miterlimit="10" d="M425.1,282l0,9l0,64.8l-25.6-0.1
	c0,0,0.1-29.1,0.8-46.4c0.1-3.1-8.8-11.3-8.8-11.3"/>
<polygon points="401,343.5 424.7,343.7 425.4,355.8 399.8,355.7 "/>
<polygon fill="#B0AEA1" points="175.8,316.1 173.8,351 151,351 156,236.8 155.1,223.7 182.6,234.5 181.8,252.7 "/>
<polyline fill="none" stroke="#000000" stroke-width="3.25" stroke-miterlimit="10" points="153.6,245.2 151,353 173.8,353 "/>
<polygon points="151.4,354 175.2,353 173.8,342.6 151.3,342.6 "/>
<g>
	<path fill="#FFFFFF" d="M386,286.8c-1.8,0.9-3.8,1.9-5.9,2.8"/>
	<path fill="#FFFFFF" d="M343.9,285.3c0,0-9.5,11.2-5,14.7s10.5-11.5,10.5-11.5"/>
	<path fill="#FFFFFF" d="M360.7,294c0,0-1.9,13.5,3.8,14c5.7,0.5,2.6-14.4,2.6-14.4"/>
	<path fill="#FFFFFF" d="M385.6,286.2c0,0,0.2,0.2,0.4,0.6"/>
	<path fill="#FFFFFF" d="M386,286.8c1.8,2.5,8.7,12.6,4,14.4c-4.9,1.9-9.2-9.6-9.9-11.5"/>
	<path fill="#FFFFFF" d="M380.1,289.3c0,0,0,0.1,0.1,0.3"/>
</g>
<path fill="#B0AEA1" d="M185.3,88.8l257.7-2c0,0,10-2.6,9.3,12c-0.7,14.6-3.3,105.9,0,109.9L451,361l-31,0.3l-0.6-69.3
	c0,0,2.7-2.8-16.6-10.9c-23.5-9.8-28.6-27-33.1-27.3c-6.1-0.3-43.8,3.1-162.1,2.4L203.8,359l-32.4,2l-1.5-106.2
	c0,0-36.7-14.9-47.8-30.1c-8.2-11.1-19-43.3-19-60.2c0-18.8,40-75,40-75L185.3,88.8z"/>
<path fill="none" d="M455,91.3c0,0,43.4-28.3,22.8,97.4c0,0-3.6,20,0,46c0,0-18.2,25.3,0,42.7"/>
<path fill="none" d="M495.4,262c0-31.3-15.8-27.3-15.8-27.3s7.8,7.3,4.8,28"/>
<path fill="none" stroke="#000000" stroke-width="3.25" stroke-miterlimit="10" d="M152.2,88.8l290.9-3c0,0,10-2.6,9.3,12
	C451.7,112.3,451,361,451,361l-31,0.3l-0.6-69.3c0,0-17.7-11.5-26.4-17.6c-37.3-26.5-41-50.2-43.7-68.8"/>
<path fill="none" stroke="#000000" stroke-width="3.25" stroke-miterlimit="10" d="M369.8,253.8c0,0-50.6,0.9-162.1,2.4L203.8,360
	l-32.4,0l-1.5-105.2c0,0-28.2-10.9-40.8-23.6c-11.2-11.3-22-33.2-22-52.4"/>
<path fill="none" stroke="#000000" stroke-width="3.25" stroke-miterlimit="10" d="M321.8,254.6c0.3,1.6,10.8,31.6,38,34.7
	c28,3.2,42.6-11.1,41.7-8.3"/>
<path fill="none" stroke="#000000" stroke-width="3.25" stroke-miterlimit="10" d="M343.9,283.3c0,0-9.5,11.2-5,14.7
	s10.5-11.5,10.5-11.5"/>
<path fill="none" stroke="#000000" stroke-width="3.25" stroke-miterlimit="10" d="M360.7,291c0,0-1.9,14.5,3.8,15
	s2.6-15.4,2.6-15.4"/>
<path fill="none" stroke="#000000" stroke-width="3.25" stroke-miterlimit="10" d="M380.1,289.3c0,0,4.7,13.9,10,11.8
	c5.3-2.1-4.5-14.9-4.5-14.9"/>
<path fill="none" stroke="#000000" stroke-width="3.25" stroke-miterlimit="10" d="M452,90.3c0,0,46.4-28.3,25.8,97.4
	c0,0-3.6,20,0,46c0,0-18.2,25.3,0,42.7"/>
<path fill="none" stroke="#000000" stroke-width="3.25" stroke-miterlimit="10" d="M495.4,261c0-31.3-15.8-27.3-15.8-27.3
	s7.8,7.3,4.8,28"/>
<polygon points="451.4,361 419.4,361.3 420.9,348.2 451.8,347.6 "/>
<polygon points="171.8,360 205.8,360.2 205.1,347.5 171.2,347.7 "/>
<path d="M365.9,307"/>
<path fill="#B0AEA1" stroke="#000000" stroke-width="3" stroke-miterlimit="10" d="M139,141.6l18.6-76l-3.2-7c0,0,6.7,18.8,29,18.8
	s23.6-19.2,23.6-19.2h-98.9H108H9c0,0,1.2,19.2,23.6,19.2s29-18.8,29-18.8l-4.1,7l18.6,76"/>
<line fill="none" stroke="#000000" stroke-width="3" stroke-miterlimit="10" x1="57.5" y1="65.5" x2="76.2" y2="141.6"/>
<path fill="none" stroke="#000000" stroke-width="3" stroke-miterlimit="10" d="M77.8,91.8c0,0,8.8,10.1,19.7,0"/>
<path fill="none" stroke="#000000" stroke-width="3" stroke-miterlimit="10" d="M118,91.8c0,0,8.8,10.1,19.7,0"/>
<path stroke="#000000" stroke-width="3" stroke-miterlimit="10" d="M72.8,26.6c0-0.2,0-0.5-1-0.1c-2.9,1.2-9.2,5.5-9.2,15.1
	c0,12.7,6.7,16.1,6.7,16.1h7c0,0-11.2-6.3-10.1-17.2C67.3,29.7,72.4,29.5,72.8,26.6z"/>
<path stroke="#000000" stroke-width="3" stroke-miterlimit="10" d="M142.2,26.6c0-0.2,0-0.5,1-0.1c2.9,1.2,9.2,5.5,9.2,15.1
	c0,12.7-6.7,16.1-6.7,16.1h-7c0,0,11.2-6.3,10.1-17.2S142.6,29.5,142.2,26.6z"/>
<path fill="none" stroke="#000000" stroke-width="2" stroke-miterlimit="10" d="M90.6,169.7c0,0-17,7.1-22.9,8.7
	c-4.6,1.3-18.7,3.5-18.7,3.5"/>
<line fill="none" stroke="#000000" stroke-width="2" stroke-miterlimit="10" x1="92.4" y1="169.7" x2="72.2" y2="181.9"/>
<line fill="none" stroke="#000000" stroke-width="2" stroke-miterlimit="10" x1="92.4" y1="169.7" x2="67.6" y2="174.9"/>
<line fill="none" stroke="#000000" stroke-width="2" stroke-miterlimit="10" x1="92.4" y1="172.8" x2="84.2" y2="179"/>
<path fill="none" stroke="#000000" stroke-width="2" stroke-miterlimit="10" d="M121.4,165.9c0,0,5.4,5.5,7.6,7.2
	c4.7,3.7,12,4.3,12,4.3"/>
<path fill="none" stroke="#000000" stroke-width="2" stroke-miterlimit="10" d="M124.9,170.1c0,0,4.9-0.5,7.7-0.1
	c2.1,0.2,8.4-2.6,8.4-2.6"/>
<path fill="none" stroke="#000000" stroke-width="2" stroke-miterlimit="10" d="M120.6,170.9c0,0,12.6,1.4,14.2,1.8
	c2.7,0.6,14.2,4.7,14.2,4.7"/>
<path fill="#FFFFFF" stroke="#000000" stroke-width="3" stroke-miterlimit="10" d="M127.6,168.7c0,7.1-5.7,10-20.2,10
	s-20.5-2.8-20.5-10H127.6z"/>
<path fill="#FFFFFF" stroke="#000000" stroke-width="3" stroke-miterlimit="10" d="M143.2,154.4c0,10.6-14.3,16-35.9,16
	s-35.1-5.4-35.1-16c0-17.4,13.5-19.2,35.1-19.2S143.2,133.8,143.2,154.4z"/>
<ellipse cx="89.9" cy="149.2" rx="4.2" ry="3.1"/>
<ellipse cx="126.2" cy="149.2" rx="4.2" ry="3.1"/>
</svg>
